<?xml version="1.0" encoding="UTF-8"?>
<svg xmlns="http://www.w3.org/2000/svg" xmlns:xlink="http://www.w3.org/1999/xlink" width="547.62pt" height="140.71pt" viewBox="0 0 547.62 140.71" version="1.1">
<defs>
<clipPath id="clip1">
  <path d="M 466 32 L 547.621094 32 L 547.621094 108 L 466 108 Z M 466 32 "/>
</clipPath>
<clipPath id="clip2">
  <path d="M 3 116 L 32 116 L 32 140.710938 L 3 140.710938 Z M 3 116 "/>
</clipPath>
<clipPath id="clip3">
  <path d="M 60 122 L 70 122 L 70 140.710938 L 60 140.710938 Z M 60 122 "/>
</clipPath>
<clipPath id="clip4">
  <path d="M 55 116 L 75 116 L 75 140.710938 L 55 140.710938 Z M 55 116 "/>
</clipPath>
<clipPath id="clip5">
  <path d="M 80 116 L 106 116 L 106 140.710938 L 80 140.710938 Z M 80 116 "/>
</clipPath>
<clipPath id="clip6">
  <path d="M 110 116 L 132 116 L 132 140.710938 L 110 140.710938 Z M 110 116 "/>
</clipPath>
<clipPath id="clip7">
  <path d="M 137 116 L 167 116 L 167 140.710938 L 137 140.710938 Z M 137 116 "/>
</clipPath>
<clipPath id="clip8">
  <path d="M 171 116 L 190 116 L 190 140.710938 L 171 140.710938 Z M 171 116 "/>
</clipPath>
<clipPath id="clip9">
  <path d="M 194 115 L 223 115 L 223 140.710938 L 194 140.710938 Z M 194 115 "/>
</clipPath>
<clipPath id="clip10">
  <path d="M 248 116 L 278 116 L 278 140.710938 L 248 140.710938 Z M 248 116 "/>
</clipPath>
<clipPath id="clip11">
  <path d="M 282 116 L 313 116 L 313 140.710938 L 282 140.710938 Z M 282 116 "/>
</clipPath>
<clipPath id="clip12">
  <path d="M 317 116 L 336 116 L 336 140.710938 L 317 140.710938 Z M 317 116 "/>
</clipPath>
<clipPath id="clip13">
  <path d="M 340 116 L 370 116 L 370 140.710938 L 340 140.710938 Z M 340 116 "/>
</clipPath>
<clipPath id="clip14">
  <path d="M 373 116 L 399 116 L 399 140.710938 L 373 140.710938 Z M 373 116 "/>
</clipPath>
<clipPath id="clip15">
  <path d="M 403 116 L 431 116 L 431 140.710938 L 403 140.710938 Z M 403 116 "/>
</clipPath>
<clipPath id="clip16">
  <path d="M 434 116 L 456 116 L 456 140.710938 L 434 140.710938 Z M 434 116 "/>
</clipPath>
<clipPath id="clip17">
  <path d="M 461 116 L 480 116 L 480 140.710938 L 461 140.710938 Z M 461 116 "/>
</clipPath>
<clipPath id="clip18">
  <path d="M 484 115 L 513 115 L 513 140.710938 L 484 140.710938 Z M 484 115 "/>
</clipPath>
<clipPath id="clip19">
  <path d="M 516 116 L 544 116 L 544 140.710938 L 516 140.710938 Z M 516 116 "/>
</clipPath>
</defs>
<g id="surface1">
<path style=" stroke:none;fill-rule:nonzero;fill:rgb(13.699341%,12.199402%,12.5%);fill-opacity:1;" d="M 22.828125 14.121094 C 22.828125 16.851563 22.921875 17.21875 25.644531 17.375 L 27.144531 17.453125 C 27.425781 17.554688 27.332031 18.023438 27.050781 18.101563 C 24.375 18.050781 22.78125 18.039063 20.921875 18.039063 C 19.0625 18.039063 17.421875 18.050781 14.425781 18.101563 C 14.148438 18.023438 14.054688 17.582031 14.425781 17.453125 L 16.113281 17.375 C 18.78125 17.242188 19.015625 16.851563 19.015625 14.121094 L 19.015625 2.492188 C 19.015625 1.6875 19.015625 1.660156 17.609375 1.660156 L 15.035156 1.660156 C 13.023438 1.660156 10.449219 1.710938 9.28125 2.308594 C 8.15625 2.882813 7.6875 3.457031 7.175781 4.105469 C 6.800781 4.261719 6.144531 4.132813 5.957031 3.925781 C 6.707031 2.753906 7.40625 1.089844 7.734375 0.0507813 C 7.875 -0.00390625 8.484375 -0.03125 8.625 0.0507813 C 8.90625 0.878906 10.449219 0.851563 12.601563 0.851563 L 31.558594 0.851563 C 34.09375 0.851563 34.503906 0.804688 35.191406 0.125 C 35.421875 0.0742188 35.933594 0.101563 36.027344 0.203125 C 35.515625 1.269531 35.191406 3.378906 35.328125 4.15625 C 35.144531 4.367188 34.367188 4.367188 34.140625 4.210938 C 34 3.558594 33.667969 2.597656 32.964844 2.308594 C 31.886719 1.867188 30.101563 1.660156 27.519531 1.660156 L 24.1875 1.660156 C 22.78125 1.660156 22.828125 1.6875 22.828125 2.546875 L 22.828125 14.121094 "/>
<path style=" stroke:none;fill-rule:nonzero;fill:rgb(13.699341%,12.199402%,12.5%);fill-opacity:1;" d="M 54.0625 9.65625 C 51.816406 9.65625 51.722656 9.710938 51.722656 10.484375 L 51.722656 14.136719 C 51.722656 16.855469 51.957031 17.21875 54.578125 17.375 L 55.933594 17.453125 C 56.214844 17.554688 56.121094 18.023438 55.839844 18.101563 C 53.3125 18.050781 51.722656 18.039063 49.90625 18.039063 C 47.910156 18.039063 46.316406 18.074219 44.492188 18.101563 C 44.210938 18.023438 44.117188 17.605469 44.398438 17.453125 L 45.195313 17.375 C 47.816406 17.113281 47.910156 16.855469 47.910156 14.136719 L 47.910156 4.777344 C 47.910156 2.042969 47.582031 1.601563 45.148438 1.496094 L 43.929688 1.445313 C 43.648438 1.339844 43.742188 0.871094 44.023438 0.792969 C 46.316406 0.820313 47.910156 0.84375 49.90625 0.84375 C 51.722656 0.84375 53.3125 0.847656 55.324219 0.792969 C 55.605469 0.871094 55.699219 1.339844 55.417969 1.445313 L 54.527344 1.496094 C 51.816406 1.652344 51.722656 2.042969 51.722656 4.777344 L 51.722656 7.773438 C 51.722656 8.582031 51.816406 8.605469 54.0625 8.605469 L 67.445313 8.605469 C 69.691406 8.605469 69.785156 8.582031 69.785156 7.773438 L 69.785156 4.777344 C 69.785156 2.042969 69.691406 1.652344 66.929688 1.496094 L 66.039063 1.445313 C 65.761719 1.339844 65.851563 0.871094 66.132813 0.792969 C 68.285156 0.847656 69.878906 0.84375 71.78125 0.84375 C 73.597656 0.84375 75.1875 0.847656 77.292969 0.792969 C 77.574219 0.871094 77.667969 1.339844 77.386719 1.445313 L 76.40625 1.496094 C 73.691406 1.652344 73.597656 2.042969 73.597656 4.777344 L 73.597656 14.136719 C 73.597656 16.855469 73.691406 17.191406 76.40625 17.375 L 77.527344 17.453125 C 77.808594 17.554688 77.714844 18.023438 77.433594 18.101563 C 75.1875 18.050781 73.597656 18.039063 71.78125 18.039063 C 69.878906 18.039063 68.191406 18.050781 66.132813 18.101563 C 65.851563 18.023438 65.761719 17.605469 66.039063 17.453125 L 66.929688 17.375 C 69.785156 17.167969 69.691406 16.855469 69.785156 14.136719 L 69.785156 10.484375 C 69.785156 9.710938 69.691406 9.65625 67.445313 9.65625 L 54.0625 9.65625 "/>
<path style=" stroke:none;fill-rule:nonzero;fill:rgb(13.699341%,12.199402%,12.5%);fill-opacity:1;" d="M 91.011719 4.78125 C 91.011719 2.066406 90.917969 1.675781 88.15625 1.492188 L 87.410156 1.441406 C 87.128906 1.335938 87.222656 0.867188 87.503906 0.789063 C 89.515625 0.839844 91.105469 0.867188 93.011719 0.851563 L 101.796875 0.851563 C 104.792969 0.851563 107.554688 0.851563 108.117188 0.789063 C 108.394531 1.230469 108.675781 3.109375 108.863281 4.25 C 108.675781 4.40625 107.929688 4.457031 107.695313 4.300781 C 106.992188 3.074219 106.570313 2.15625 104.136719 1.816406 C 103.15625 1.6875 101.65625 1.660156 99.597656 1.660156 L 96.226563 1.660156 C 94.824219 1.660156 94.824219 1.714844 94.824219 2.707031 L 94.824219 7.9375 C 94.824219 8.667969 94.964844 8.667969 96.367188 8.667969 L 99.082031 8.667969 C 101.050781 8.667969 102.5 8.617188 103.0625 8.511719 C 103.621094 8.40625 103.949219 8.25 104.183594 7.597656 L 104.558594 6.523438 C 104.792969 6.367188 105.589844 6.367188 105.777344 6.550781 C 105.777344 7.179688 105.5625 8.199219 105.5625 9.199219 C 105.5625 10.132813 105.777344 11.097656 105.777344 11.660156 C 105.589844 11.839844 104.792969 11.839844 104.558594 11.6875 L 104.136719 10.691406 C 103.949219 10.230469 103.621094 9.851563 102.6875 9.722656 C 102.03125 9.621094 100.910156 9.59375 99.082031 9.59375 L 96.367188 9.59375 C 94.964844 9.59375 94.824219 9.621094 94.824219 10.285156 L 94.824219 13.925781 C 94.824219 15.304688 94.964844 16.1875 95.714844 16.628906 C 96.277344 16.941406 97.257813 17.226563 101.375 17.226563 C 104.980469 17.226563 106.335938 17.125 107.367188 16.839844 C 108.210938 16.578125 109.472656 15.667969 110.691406 14.3125 C 111.019531 14.183594 111.671875 14.261719 111.859375 14.496094 C 111.53125 15.40625 110.363281 17.410156 109.753906 18.113281 C 105.542969 18.058594 101.375 18.035156 97.210938 18.035156 L 93.011719 18.035156 C 91.011719 18.035156 89.421875 18.058594 86.660156 18.101563 C 86.378906 18.023438 86.285156 17.605469 86.566406 17.457031 L 88.109375 17.378906 C 90.777344 17.25 91.011719 16.859375 91.011719 14.132813 L 91.011719 4.78125 "/>
<path style=" stroke:none;fill-rule:nonzero;fill:rgb(13.699341%,12.199402%,12.5%);fill-opacity:1;" d="M 163.125 7.371094 C 163.125 5.761719 163.03125 2.765625 162.234375 1.984375 C 161.90625 1.675781 161.0625 1.492188 159.894531 1.441406 L 158.722656 1.386719 C 158.441406 1.214844 158.535156 0.886719 158.816406 0.789063 C 160.597656 0.839844 162.328125 0.851563 164.160156 0.851563 C 166.128906 0.851563 167.390625 0.839844 169.078125 0.789063 C 169.449219 0.914063 169.402344 1.238281 169.171875 1.386719 L 168.046875 1.441406 C 166.878906 1.492188 165.941406 1.726563 165.707031 2.0625 C 165.003906 2.925781 165.050781 5.914063 165.050781 7.371094 L 165.050781 10.3125 C 165.050781 12.578125 164.394531 14.972656 161.769531 16.535156 C 159.753906 17.746094 156.285156 18.414063 152.820313 18.414063 C 149.585938 18.414063 146.355469 18.082031 144.058594 17.003906 C 141.59375 15.855469 140.433594 13.957031 140.433594 10.859375 L 140.433594 4.71875 C 140.433594 2.011719 140.339844 1.570313 137.625 1.441406 L 136.453125 1.386719 C 136.175781 1.289063 136.269531 0.863281 136.546875 0.789063 C 138.890625 0.839844 140.480469 0.851563 142.339844 0.851563 C 144.246094 0.851563 145.792969 0.839844 148.085938 0.789063 C 148.367188 0.863281 148.460938 1.289063 148.179688 1.386719 L 147.058594 1.441406 C 144.339844 1.570313 144.246094 2.011719 144.246094 4.71875 L 144.246094 10.339844 C 144.246094 14.53125 146.589844 17.289063 153.757813 17.289063 C 160.550781 17.289063 163.125 14.320313 163.125 10.367188 L 163.125 7.371094 "/>
<path style=" stroke:none;fill-rule:nonzero;fill:rgb(13.699341%,12.199402%,12.5%);fill-opacity:1;" d="M 206.285156 13.585938 C 206.285156 14.363281 206.285156 17.453125 206.425781 18.128906 C 206.332031 18.285156 206.050781 18.414063 205.53125 18.414063 C 204.96875 17.972656 203.609375 17.0625 199.535156 14.515625 L 188.667969 7.65625 C 187.40625 6.847656 184.21875 4.71875 183.238281 4.148438 L 183.144531 4.148438 C 182.957031 4.460938 182.910156 5.054688 182.910156 5.835938 L 182.910156 11.503906 C 182.910156 12.722656 183.003906 16.101563 183.753906 16.882813 C 184.078125 17.164063 184.96875 17.320313 186.140625 17.375 L 187.59375 17.453125 C 187.871094 17.660156 187.824219 17.972656 187.5 18.101563 C 185.390625 18.050781 183.753906 18.039063 182.015625 18.039063 C 180.046875 18.039063 178.785156 18.050781 177.144531 18.101563 C 176.816406 17.972656 176.769531 17.605469 177.050781 17.453125 L 178.316406 17.375 C 179.390625 17.320313 180.140625 17.140625 180.375 16.855469 C 181.03125 15.917969 180.984375 12.75 180.984375 11.503906 L 180.984375 3.992188 C 180.984375 3.265625 180.9375 2.71875 179.953125 2.121094 C 179.296875 1.757813 178.175781 1.574219 177.050781 1.496094 L 176.257813 1.445313 C 175.976563 1.289063 175.976563 0.898438 176.351563 0.792969 C 178.316406 0.871094 180.796875 0.84375 181.640625 0.84375 C 182.394531 0.84375 183.191406 0.847656 183.800781 0.792969 C 184.734375 2.121094 190.308594 5.550781 191.808594 6.511719 L 196.351563 9.34375 C 199.535156 11.371094 201.875 12.800781 204.078125 14.046875 L 204.171875 14.046875 C 204.359375 13.917969 204.359375 13.503906 204.359375 12.957031 L 204.359375 7.394531 C 204.359375 6.175781 204.3125 2.796875 203.421875 2.015625 C 203.140625 1.78125 202.390625 1.628906 200.519531 1.496094 L 199.722656 1.445313 C 199.394531 1.289063 199.441406 0.871094 199.816406 0.792969 C 201.96875 0.847656 203.5625 0.84375 205.34375 0.84375 C 207.359375 0.84375 208.578125 0.847656 210.167969 0.792969 C 210.542969 0.925781 210.542969 1.289063 210.261719 1.445313 L 209.605469 1.496094 C 208.109375 1.628906 207.171875 1.835938 206.984375 2.042969 C 206.191406 2.976563 206.285156 6.199219 206.285156 7.394531 L 206.285156 13.585938 "/>
<path style=" stroke:none;fill-rule:nonzero;fill:rgb(13.699341%,12.199402%,12.5%);fill-opacity:1;" d="M 223.128906 4.824219 C 223.128906 2.066406 223.035156 1.628906 220.273438 1.496094 L 219.105469 1.445313 C 218.824219 1.339844 218.917969 0.871094 219.199219 0.792969 C 221.539063 0.847656 223.128906 0.84375 225.082031 0.84375 C 226.941406 0.84375 228.53125 0.847656 230.871094 0.792969 C 231.152344 0.871094 231.246094 1.339844 230.964844 1.445313 L 229.796875 1.496094 C 227.035156 1.628906 226.941406 2.066406 226.941406 4.824219 L 226.941406 14.074219 C 226.941406 16.828125 227.035156 17.191406 229.796875 17.375 L 230.964844 17.453125 C 231.246094 17.554688 231.152344 18.023438 230.871094 18.101563 C 228.53125 18.050781 226.941406 18.039063 225.082031 18.039063 C 223.128906 18.039063 221.539063 18.050781 219.199219 18.101563 C 218.917969 18.023438 218.824219 17.605469 219.105469 17.453125 L 220.273438 17.375 C 223.035156 17.191406 223.128906 16.828125 223.128906 14.074219 L 223.128906 4.824219 "/>
<path style=" stroke:none;fill-rule:nonzero;fill:rgb(13.699341%,12.199402%,12.5%);fill-opacity:1;" d="M 242.992188 3.625 C 241.917969 2.171875 241.214844 1.628906 239.203125 1.496094 L 238.363281 1.445313 C 238.046875 1.289063 238.09375 0.925781 238.453125 0.792969 C 239.8125 0.847656 241.308594 0.84375 243.320313 0.84375 C 245.382813 0.84375 247.019531 0.847656 248.984375 0.792969 C 249.3125 0.898438 249.40625 1.289063 249.078125 1.445313 L 248.375 1.496094 C 246.597656 1.628906 246.222656 1.78125 246.175781 1.988281 C 246.269531 2.25 247.066406 3.648438 248.515625 5.621094 C 250.667969 8.632813 252.820313 11.613281 255.160156 14.574219 C 256.613281 12.859375 258.625 10.1875 259.652344 8.8125 C 261.058594 7.050781 263.210938 4.117188 264.007813 3.003906 C 264.382813 2.457031 264.429688 2.171875 264.429688 1.988281 C 264.429688 1.808594 263.960938 1.601563 262.320313 1.496094 L 261.480469 1.445313 C 261.152344 1.289063 261.246094 0.898438 261.574219 0.792969 C 262.882813 0.847656 264.660156 0.84375 266.441406 0.84375 C 267.984375 0.84375 269.4375 0.847656 270.980469 0.792969 C 271.308594 0.898438 271.308594 1.3125 271.074219 1.445313 L 269.667969 1.496094 C 268.546875 1.550781 267.84375 1.859375 267.234375 2.40625 C 265.925781 3.625 264.101563 5.726563 261.996094 8.371094 L 259.46875 11.5625 C 257.59375 13.949219 255.394531 16.960938 254.601563 18.335938 C 254.460938 18.386719 254.273438 18.414063 254.085938 18.414063 C 253.851563 18.414063 253.617188 18.386719 253.382813 18.335938 C 252.867188 17.246094 252.074219 15.972656 251.230469 14.886719 L 242.992188 3.625 "/>
<path style=" stroke:none;fill-rule:nonzero;fill:rgb(13.699341%,12.199402%,12.5%);fill-opacity:1;" d="M 281.347656 4.78125 C 281.347656 2.066406 281.253906 1.675781 278.492188 1.492188 L 277.746094 1.441406 C 277.464844 1.335938 277.558594 0.867188 277.839844 0.789063 C 279.851563 0.839844 281.441406 0.867188 283.347656 0.851563 L 292.132813 0.851563 C 295.128906 0.851563 297.890625 0.851563 298.449219 0.789063 C 298.730469 1.230469 299.015625 3.109375 299.199219 4.25 C 299.015625 4.40625 298.265625 4.457031 298.03125 4.300781 C 297.328125 3.074219 296.90625 2.15625 294.472656 1.816406 C 293.488281 1.6875 291.992188 1.660156 289.933594 1.660156 L 286.5625 1.660156 C 285.160156 1.660156 285.160156 1.714844 285.160156 2.707031 L 285.160156 7.9375 C 285.160156 8.667969 285.300781 8.667969 286.703125 8.667969 L 289.421875 8.667969 C 291.386719 8.667969 292.835938 8.617188 293.398438 8.511719 C 293.960938 8.40625 294.285156 8.25 294.519531 7.597656 L 294.894531 6.523438 C 295.128906 6.367188 295.925781 6.367188 296.109375 6.550781 C 296.109375 7.179688 295.894531 8.199219 295.894531 9.199219 C 295.894531 10.132813 296.109375 11.097656 296.109375 11.660156 C 295.925781 11.839844 295.128906 11.839844 294.894531 11.6875 L 294.472656 10.691406 C 294.285156 10.230469 293.960938 9.851563 293.023438 9.722656 C 292.367188 9.621094 291.242188 9.59375 289.421875 9.59375 L 286.703125 9.59375 C 285.300781 9.59375 285.160156 9.621094 285.160156 10.285156 L 285.160156 13.925781 C 285.160156 15.304688 285.300781 16.1875 286.050781 16.628906 C 286.609375 16.941406 287.59375 17.226563 291.714844 17.226563 C 295.316406 17.226563 296.675781 17.125 297.703125 16.839844 C 298.546875 16.578125 299.808594 15.667969 301.023438 14.3125 C 301.355469 14.183594 302.007813 14.261719 302.195313 14.496094 C 301.867188 15.40625 300.699219 17.410156 300.089844 18.113281 C 295.878906 18.058594 291.714844 18.035156 287.546875 18.035156 L 283.347656 18.035156 C 281.347656 18.035156 279.757813 18.058594 276.996094 18.101563 C 276.714844 18.023438 276.621094 17.605469 276.902344 17.457031 L 278.445313 17.378906 C 281.113281 17.25 281.347656 16.859375 281.347656 14.132813 L 281.347656 4.78125 "/>
<path style=" stroke:none;fill-rule:nonzero;fill:rgb(13.699341%,12.199402%,12.5%);fill-opacity:1;" d="M 314.0625 14.128906 C 314.0625 16.855469 313.96875 17.191406 311.253906 17.375 L 310.085938 17.453125 C 309.804688 17.632813 309.894531 18.023438 310.179688 18.101563 C 312.378906 18.050781 314.0625 18.039063 316.015625 18.039063 C 317.875 18.039063 319.472656 18.050781 321.582031 18.101563 C 321.863281 18.023438 321.957031 17.582031 321.675781 17.453125 L 320.691406 17.375 C 317.96875 17.167969 317.875 16.855469 317.875 14.128906 L 317.875 10.859375 C 317.875 10.3125 317.96875 10.289063 320.078125 10.289063 C 321.957031 10.289063 322.710938 10.550781 323.414063 11.117188 C 324.867188 12.285156 326.792969 14.078125 328.015625 15.039063 C 331.332031 17.695313 333.71875 18.347656 337.695313 18.347656 C 338.585938 18.347656 339.332031 18.296875 339.753906 18.21875 C 339.988281 18.113281 339.941406 17.90625 339.707031 17.851563 C 338.441406 17.800781 337.273438 17.515625 336.476563 17.121094 C 333.296875 15.636719 330.816406 13.550781 327.074219 10.1875 C 326.839844 9.988281 326.605469 9.738281 326.839844 9.589844 C 329.183594 9.066406 332.6875 7.710938 332.6875 5.226563 C 332.6875 3.398438 331.050781 2.222656 328.808594 1.570313 C 326.652344 0.921875 323.882813 0.789063 320.972656 0.789063 C 316.386719 0.789063 313.171875 0.867188 310.550781 1 C 310.179688 1.101563 310.179688 1.519531 310.503906 1.648438 L 312.003906 1.753906 C 313.921875 1.886719 314.0625 2.328125 314.0625 4.808594 Z M 317.875 2.433594 C 317.875 1.703125 318.015625 1.597656 320.925781 1.597656 C 326.136719 1.597656 328.4375 3.554688 328.4375 5.621094 C 328.4375 7.394531 327.355469 8.308594 326.089844 8.859375 C 324.730469 9.433594 322.941406 9.539063 321.253906 9.539063 C 318.859375 9.539063 318.15625 9.484375 318.015625 9.40625 C 317.875 9.304688 317.875 9.015625 317.875 8.546875 L 317.875 2.433594 "/>
<path style=" stroke:none;fill-rule:nonzero;fill:rgb(13.699341%,12.199402%,12.5%);fill-opacity:1;" d="M 354.109375 18.410156 C 350.179688 18.410156 347.71875 17.734375 346.832031 17.449219 C 346.269531 16.878906 345.664063 15.039063 345.570313 13.820313 C 345.804688 13.640625 346.507813 13.589844 346.691406 13.742188 C 347.394531 15.066406 349.296875 17.601563 354.71875 17.601563 C 358.648438 17.601563 360.566406 16.179688 360.566406 14.625 C 360.566406 13.484375 360.144531 12.214844 356.730469 11 L 352.28125 9.394531 C 349.945313 8.539063 347.253906 7.0625 347.253906 4.9375 C 347.253906 2.476563 350.691406 0.476563 356.773438 0.476563 C 358.226563 0.476563 359.910156 0.609375 361.128906 0.820313 C 361.734375 0.898438 362.386719 0.976563 362.761719 0.976563 C 363.179688 1.597656 363.601563 3.046875 363.601563 4.132813 C 363.414063 4.289063 362.667969 4.367188 362.433594 4.210938 C 361.824219 2.96875 360.566406 1.285156 356.074219 1.285156 C 351.488281 1.285156 350.503906 2.96875 350.503906 4.160156 C 350.503906 5.664063 352.75 6.726563 354.480469 7.347656 L 358.226563 8.640625 C 361.175781 9.652344 364.066406 11.152344 364.066406 13.613281 C 364.066406 16.464844 360.191406 18.410156 354.109375 18.410156 "/>
<path style=" stroke:none;fill-rule:nonzero;fill:rgb(13.699341%,12.199402%,12.5%);fill-opacity:1;" d="M 377.894531 4.824219 C 377.894531 2.066406 377.804688 1.628906 375.042969 1.496094 L 373.871094 1.445313 C 373.59375 1.339844 373.683594 0.871094 373.964844 0.792969 C 376.304688 0.847656 377.894531 0.84375 379.851563 0.84375 C 381.710938 0.84375 383.300781 0.847656 385.640625 0.792969 C 385.921875 0.871094 386.015625 1.339844 385.734375 1.445313 L 384.5625 1.496094 C 381.804688 1.628906 381.710938 2.066406 381.710938 4.824219 L 381.710938 14.074219 C 381.710938 16.828125 381.804688 17.191406 384.5625 17.375 L 385.734375 17.453125 C 386.015625 17.554688 385.921875 18.023438 385.640625 18.101563 C 383.300781 18.050781 381.710938 18.039063 379.851563 18.039063 C 377.894531 18.039063 376.304688 18.050781 373.964844 18.101563 C 373.683594 18.023438 373.59375 17.605469 373.871094 17.453125 L 375.042969 17.375 C 377.804688 17.191406 377.894531 16.828125 377.894531 14.074219 L 377.894531 4.824219 "/>
<path style=" stroke:none;fill-rule:nonzero;fill:rgb(13.699341%,12.199402%,12.5%);fill-opacity:1;" d="M 410.285156 14.121094 C 410.285156 16.851563 410.378906 17.21875 413.101563 17.375 L 414.605469 17.453125 C 414.886719 17.554688 414.789063 18.023438 414.507813 18.101563 C 411.835938 18.050781 410.238281 18.039063 408.378906 18.039063 C 406.519531 18.039063 404.882813 18.050781 401.886719 18.101563 C 401.605469 18.023438 401.511719 17.582031 401.886719 17.453125 L 403.570313 17.375 C 406.238281 17.242188 406.472656 16.851563 406.472656 14.121094 L 406.472656 2.492188 C 406.472656 1.6875 406.472656 1.660156 405.066406 1.660156 L 402.492188 1.660156 C 400.480469 1.660156 397.90625 1.710938 396.738281 2.308594 C 395.613281 2.882813 395.144531 3.457031 394.632813 4.105469 C 394.257813 4.261719 393.601563 4.132813 393.414063 3.925781 C 394.164063 2.753906 394.867188 1.089844 395.191406 0.0507813 C 395.335938 -0.00390625 395.941406 -0.03125 396.082031 0.0507813 C 396.363281 0.878906 397.90625 0.851563 400.0625 0.851563 L 419.015625 0.851563 C 421.550781 0.851563 421.964844 0.804688 422.648438 0.125 C 422.878906 0.0742188 423.394531 0.101563 423.484375 0.203125 C 422.972656 1.269531 422.648438 3.378906 422.785156 4.15625 C 422.601563 4.367188 421.824219 4.367188 421.597656 4.210938 C 421.457031 3.558594 421.128906 2.597656 420.425781 2.308594 C 419.34375 1.867188 417.5625 1.660156 414.980469 1.660156 L 411.644531 1.660156 C 410.238281 1.660156 410.285156 1.6875 410.285156 2.546875 L 410.285156 14.121094 "/>
<path style=" stroke:none;fill-rule:nonzero;fill:rgb(13.699341%,12.199402%,12.5%);fill-opacity:1;" d="M 445.613281 14.074219 C 445.613281 16.855469 445.894531 17.269531 448.429688 17.375 L 450.207031 17.453125 C 450.488281 17.605469 450.394531 18.023438 450.113281 18.101563 C 447.207031 18.050781 445.613281 18.039063 443.753906 18.039063 C 441.804688 18.039063 440.117188 18.050781 437.636719 18.101563 C 437.355469 18.023438 437.261719 17.605469 437.542969 17.453125 L 438.992188 17.375 C 441.710938 17.21875 441.804688 16.855469 441.804688 14.074219 L 441.804688 12.75 C 441.804688 11.320313 441.660156 10.980469 440.304688 9.527344 L 434.78125 3.550781 C 433.191406 1.835938 432.488281 1.703125 431.085938 1.574219 L 429.773438 1.445313 C 429.492188 1.261719 429.539063 0.898438 429.867188 0.792969 C 431.363281 0.847656 433.050781 0.84375 435.296875 0.84375 C 437.449219 0.84375 439.132813 0.847656 440.304688 0.792969 C 440.726563 0.871094 440.726563 1.289063 440.445313 1.445313 L 439.835938 1.496094 C 438.199219 1.652344 437.871094 1.757813 437.871094 1.964844 C 437.871094 2.222656 439.089844 3.707031 439.320313 3.964844 C 441.054688 5.886719 442.777344 7.941406 444.59375 9.734375 C 446.035156 8.355469 447.582031 6.847656 448.988281 5.34375 C 450.300781 3.992188 452.035156 2.222656 452.035156 1.914063 C 452.035156 1.757813 451.191406 1.574219 450.066406 1.496094 L 449.222656 1.445313 C 448.894531 1.261719 448.941406 0.898438 449.316406 0.792969 C 451.003906 0.847656 452.363281 0.84375 453.816406 0.84375 C 455.269531 0.84375 456.582031 0.847656 458.179688 0.792969 C 458.535156 0.925781 458.582031 1.289063 458.265625 1.445313 L 456.957031 1.574219 C 454.519531 1.78125 453.113281 3.445313 450.769531 5.679688 L 447.816406 8.511719 C 445.710938 10.460938 445.613281 10.722656 445.613281 12.722656 L 445.613281 14.074219 "/>
<path style=" stroke:none;fill-rule:nonzero;fill:rgb(13.699341%,12.199402%,12.5%);fill-opacity:1;" d="M 498.058594 18.410156 C 507.101563 18.410156 514.3125 14.597656 514.3125 9.367188 C 514.3125 4.808594 508.882813 0.476563 498.058594 0.476563 C 488.40625 0.476563 481.382813 4.445313 481.382813 9.625 C 481.382813 14.289063 487.65625 18.410156 498.058594 18.410156 Z M 498.667969 17.601563 C 489.4375 17.601563 486.0625 12.632813 486.0625 8.796875 C 486.0625 3.125 492.390625 1.285156 497.261719 1.285156 C 506.210938 1.285156 509.632813 5.894531 509.632813 10.171875 C 509.632813 15.273438 504.289063 17.601563 498.667969 17.601563 "/>
<path style=" stroke:none;fill-rule:nonzero;fill:rgb(13.699341%,12.199402%,12.5%);fill-opacity:1;" d="M 531.65625 8.214844 C 531.65625 8.917969 531.796875 8.917969 533.199219 8.917969 L 536.378906 8.917969 C 538.296875 8.917969 539.792969 8.867188 540.355469 8.761719 C 540.871094 8.660156 541.242188 8.527344 541.523438 7.851563 L 541.945313 6.808594 C 542.179688 6.652344 542.976563 6.652344 543.160156 6.808594 C 543.160156 7.433594 542.960938 8.476563 542.960938 9.449219 C 542.960938 10.390625 543.160156 11.371094 543.160156 11.96875 C 542.976563 12.121094 542.273438 12.121094 541.945313 11.96875 L 541.480469 10.957031 C 541.289063 10.492188 540.871094 10.128906 539.980469 9.972656 C 539.324219 9.871094 538.15625 9.84375 536.378906 9.84375 L 533.199219 9.84375 C 531.796875 9.84375 531.65625 9.871094 531.65625 10.542969 L 531.65625 14.140625 C 531.65625 16.855469 531.746094 17.246094 534.507813 17.375 L 536.097656 17.453125 C 536.378906 17.554688 536.285156 18.023438 536.003906 18.101563 C 533.246094 18.050781 531.65625 18.039063 529.796875 18.039063 C 527.75 18.039063 526.15625 18.050781 523.957031 18.101563 C 523.679688 18.023438 523.585938 17.605469 523.863281 17.453125 L 525.035156 17.375 C 527.75 17.191406 527.84375 16.855469 527.84375 14.140625 L 527.84375 4.777344 C 527.84375 2.039063 527.75 1.675781 525.035156 1.492188 L 524.285156 1.441406 C 524.003906 1.335938 524.097656 0.867188 524.378906 0.789063 C 526.347656 0.839844 527.9375 0.867188 529.796875 0.851563 L 538.390625 0.851563 C 541.382813 0.851563 544.101563 0.851563 544.710938 0.789063 C 544.710938 1.988281 544.757813 3.238281 544.851563 4.21875 C 544.710938 4.375 544.054688 4.453125 543.722656 4.296875 C 543.351563 3.121094 542.789063 2.183594 540.449219 1.816406 C 539.421875 1.6875 537.875 1.660156 535.910156 1.660156 L 533.058594 1.660156 C 531.65625 1.660156 531.65625 1.714844 531.65625 2.703125 L 531.65625 8.214844 "/>
<path style=" stroke:none;fill-rule:nonzero;fill:rgb(16.862488%,8.627319%,36.862183%);fill-opacity:1;" d="M 26.25 107.234375 C 14.148438 107.234375 6.578125 104.339844 3.863281 103.121094 C 2.144531 100.710938 0.285156 92.929688 0 87.78125 C 0.714844 87.011719 2.859375 86.792969 3.433594 87.453125 C 5.578125 93.039063 11.433594 103.78125 28.125 103.78125 C 40.234375 103.78125 46.148438 97.753906 46.148438 91.175781 C 46.148438 86.355469 44.851563 80.984375 34.324219 75.835938 L 20.628906 69.039063 C 13.433594 65.421875 5.148438 59.175781 5.148438 50.191406 C 5.148438 39.777344 15.726563 31.28125 34.46875 31.28125 C 38.9375 31.28125 44.128906 31.839844 47.828125 32.597656 C 49.648438 32.929688 51.609375 33.257813 52.726563 33.257813 C 53.988281 35.882813 55.246094 42.007813 55.246094 46.601563 C 54.6875 47.257813 52.449219 47.589844 51.746094 47.121094 C 49.929688 41.859375 46.148438 34.734375 32.304688 34.734375 C 18.175781 34.734375 15.148438 41.859375 15.148438 46.902344 C 15.148438 53.257813 22.070313 57.75 27.402344 60.382813 L 38.9375 65.863281 C 47.96875 70.136719 56.648438 76.492188 56.648438 86.902344 C 56.648438 98.957031 44.996094 107.234375 26.25 107.234375 "/>
<path style=" stroke:none;fill-rule:nonzero;fill:rgb(16.862488%,8.627319%,36.862183%);fill-opacity:1;" d="M 71.769531 40.308594 C 79.359375 35.757813 89.03125 33.515625 99.847656 33.515625 C 105.464844 33.515625 113.367188 34.398438 118.257813 35.316406 C 119.503906 35.558594 120.230469 35.71875 121.167969 35.636719 C 121.273438 37.476563 121.792969 42.515625 122.625 47.398438 C 122.105469 47.957031 120.542969 48.039063 119.816406 47.648438 C 118.257813 42.222656 113.578125 35.996094 98.496094 35.996094 C 82.585938 35.996094 69.066406 43.738281 69.066406 60.253906 C 69.066406 77.011719 82.898438 86.265625 99.953125 86.265625 C 113.367188 86.265625 119.296875 79.566406 121.6875 74.855469 C 122.417969 74.457031 123.976563 74.617188 124.394531 75.175781 C 123.664063 79.324219 120.960938 84.589844 119.398438 86.105469 C 118.152344 86.265625 116.902344 86.585938 115.761719 86.90625 C 113.472656 87.546875 105.984375 88.746094 99.328125 88.746094 C 89.96875 88.746094 81.023438 87.308594 73.433594 83.394531 C 65.121094 79.007813 58.691406 71.746094 58.691406 61.453125 C 58.691406 52.59375 63.878906 45.015625 71.769531 40.308594 "/>
<path style=" stroke:none;fill-rule:nonzero;fill:rgb(16.862488%,8.627319%,36.862183%);fill-opacity:1;" d="M 135.144531 75.496094 C 135.144531 83.910156 134.9375 84.953125 128.902344 85.515625 L 126.304688 85.753906 C 125.679688 86.316406 125.886719 87.515625 126.511719 87.753906 C 131.398438 87.59375 135.144531 87.511719 139.496094 87.511719 C 143.644531 87.511719 147.179688 87.59375 151.855469 87.753906 C 152.480469 87.515625 152.6875 86.15625 152.0625 85.753906 L 149.878906 85.515625 C 143.851563 84.871094 143.644531 83.910156 143.644531 75.496094 L 143.644531 65.394531 C 143.644531 63.714844 143.851563 63.632813 148.527344 63.632813 C 152.6875 63.632813 154.351563 64.433594 155.910156 66.199219 C 159.132813 69.804688 163.390625 75.335938 166.09375 78.300781 C 173.488281 86.402344 178.796875 88.382813 187.636719 88.382813 C 189.609375 88.382813 191.273438 88.222656 192.210938 87.988281 C 192.730469 87.671875 192.628906 87.039063 192.105469 86.882813 C 189.300781 86.722656 186.699219 85.839844 184.929688 84.636719 C 177.859375 80.066406 172.339844 73.652344 164.015625 63.316406 C 163.496094 62.683594 162.976563 61.890625 163.496094 61.414063 C 168.695313 59.820313 176.507813 55.671875 176.507813 48.089844 C 176.507813 42.503906 172.863281 38.914063 167.863281 36.917969 C 163.082031 34.917969 156.949219 34.515625 150.503906 34.515625 C 140.328125 34.515625 133.167969 34.757813 127.34375 35.15625 C 126.511719 35.476563 126.511719 36.757813 127.238281 37.15625 L 130.566406 37.476563 C 134.832031 37.875 135.144531 39.230469 135.144531 46.8125 Z M 143.644531 39.550781 C 143.644531 37.316406 143.957031 36.996094 150.398438 36.996094 C 161.9375 36.996094 167.03125 42.980469 167.03125 49.289063 C 167.03125 54.714844 164.640625 57.507813 161.832031 59.183594 C 158.820313 60.9375 154.867188 61.257813 151.128906 61.257813 C 145.828125 61.257813 144.269531 61.097656 143.957031 60.859375 C 143.644531 60.539063 143.644531 59.660156 143.644531 58.226563 L 143.644531 39.550781 "/>
<path style=" stroke:none;fill-rule:nonzero;fill:rgb(16.862488%,8.627319%,36.862183%);fill-opacity:1;" d="M 234.179688 79.847656 C 235.015625 81.761719 235.53125 83.199219 235.53125 84.078125 C 235.53125 84.875 234.078125 85.355469 231.894531 85.515625 L 228.878906 85.753906 C 228.148438 86.15625 228.253906 87.433594 229.085938 87.753906 C 232.101563 87.675781 236.054688 87.511719 241.046875 87.511719 C 245.726563 87.511719 249.367188 87.59375 253.628906 87.753906 C 254.152344 87.433594 254.359375 86.15625 253.628906 85.753906 L 250.820313 85.515625 C 246.351563 85.117188 244.996094 83.917969 241.980469 77.054688 L 227.734375 44.925781 C 226.171875 41.414063 224.507813 37.738281 223.15625 34.226563 C 222.949219 33.667969 222.222656 33.507813 221.597656 33.507813 C 220.453125 34.546875 218.683594 35.980469 216.1875 36.542969 C 216.5 37.820313 215.875 39.335938 214.421875 42.210938 L 203.8125 63.769531 C 199.441406 72.742188 196.53125 77.929688 194.660156 81.601563 C 193.203125 84.476563 190.914063 85.355469 188.417969 85.515625 L 184.988281 85.753906 C 184.363281 86.15625 184.570313 87.433594 185.195313 87.753906 C 188.003906 87.675781 191.746094 87.511719 195.179688 87.511719 C 200.066406 87.589844 203.292969 87.59375 205.996094 87.753906 C 206.933594 87.433594 206.933594 86.15625 206.203125 85.753906 L 202.769531 85.515625 C 200.273438 85.355469 199.753906 84.875 199.753906 83.917969 C 199.753906 83.039063 200.484375 80.886719 202.042969 77.292969 L 205.683594 68.910156 C 206.410156 67.234375 207.035156 66.996094 209.636719 66.996094 L 225.339844 66.996094 C 228.460938 66.996094 228.878906 67.234375 229.605469 68.992188 Z M 215.5625 47.960938 C 216.707031 45.5625 217.75 43.648438 218.0625 43.25 L 218.269531 43.25 C 218.894531 44.207031 219.828125 46.363281 220.660156 48.277344 L 226.277344 61.292969 C 227.214844 63.449219 227.003906 63.769531 223.988281 63.769531 L 211.195313 63.769531 C 208.285156 63.769531 208.179688 63.6875 209.011719 61.851563 L 215.5625 47.960938 "/>
<path style=" stroke:none;fill-rule:nonzero;fill:rgb(16.862488%,8.627319%,36.862183%);fill-opacity:1;" d="M 318.730469 73.90625 C 318.730469 76.300781 318.730469 85.804688 319.039063 87.878906 C 318.832031 88.359375 318.210938 88.757813 317.070313 88.757813 C 315.824219 87.398438 312.8125 84.605469 303.769531 76.726563 L 279.644531 55.636719 C 276.835938 53.160156 269.765625 46.609375 267.582031 44.851563 L 267.375 44.851563 C 266.957031 45.808594 266.855469 47.648438 266.855469 50.042969 L 266.855469 67.460938 C 266.855469 71.214844 267.0625 81.601563 268.726563 83.996094 C 269.453125 84.875 271.429688 85.355469 274.027344 85.515625 L 277.253906 85.753906 C 277.875 86.394531 277.773438 87.355469 277.042969 87.753906 C 272.363281 87.59375 268.726563 87.511719 264.886719 87.511719 C 260.523438 87.511719 257.714844 87.59375 254.074219 87.753906 C 253.347656 87.355469 253.242188 86.234375 253.867188 85.753906 L 256.675781 85.515625 C 259.066406 85.355469 260.730469 84.796875 261.253906 83.917969 C 262.707031 81.039063 262.605469 71.292969 262.605469 67.460938 L 262.605469 44.371094 C 262.605469 42.132813 262.5 40.457031 260.316406 38.617188 C 258.859375 37.5 256.363281 36.941406 253.867188 36.703125 L 252.101563 36.539063 C 251.476563 36.054688 251.476563 34.84375 252.308594 34.519531 C 256.675781 34.761719 262.1875 34.746094 264.054688 34.746094 C 265.714844 34.746094 267.476563 34.679688 268.828125 34.519531 C 270.910156 38.617188 283.28125 49.164063 286.609375 52.121094 L 296.695313 60.828125 C 303.769531 67.058594 308.96875 71.453125 313.855469 75.289063 L 314.0625 75.289063 C 314.480469 74.890625 314.480469 73.609375 314.480469 71.933594 L 314.480469 54.835938 C 314.480469 51.082031 314.375 40.695313 312.398438 38.300781 C 311.773438 37.582031 310.109375 37.101563 305.949219 36.703125 L 304.183594 36.539063 C 303.457031 36.054688 303.558594 34.761719 304.390625 34.519531 C 309.175781 34.679688 312.710938 34.746094 316.65625 34.746094 C 321.121094 34.746094 323.824219 34.679688 327.359375 34.519531 C 328.191406 34.925781 328.191406 36.054688 327.566406 36.539063 L 326.113281 36.703125 C 322.785156 37.101563 320.703125 37.738281 320.289063 38.378906 C 318.519531 41.253906 318.730469 51.160156 318.730469 54.835938 L 318.730469 73.90625 "/>
<path style=" stroke:none;fill-rule:nonzero;fill:rgb(16.862488%,8.627319%,36.862183%);fill-opacity:1;" d="M 366.5625 75.527344 C 366.5625 83.917969 366.769531 85.035156 372.816406 85.515625 L 376.15625 85.753906 C 376.78125 86.074219 376.574219 87.515625 375.945313 87.753906 C 370.003906 87.59375 366.457031 87.511719 362.3125 87.511719 C 358.164063 87.511719 354.523438 87.59375 347.867188 87.753906 C 347.242188 87.515625 347.035156 86.15625 347.867188 85.753906 L 351.613281 85.515625 C 357.539063 85.113281 358.0625 83.917969 358.0625 75.527344 L 358.0625 39.804688 C 358.0625 37.328125 358.0625 37.246094 354.941406 37.246094 L 349.222656 37.246094 C 344.75 37.246094 339.027344 37.410156 336.429688 39.246094 C 333.933594 41.003906 332.894531 42.761719 331.75 44.761719 C 330.917969 45.238281 329.460938 44.839844 329.046875 44.203125 C 330.710938 40.605469 332.269531 35.488281 332.996094 32.289063 C 333.308594 32.128906 334.660156 32.046875 334.972656 32.289063 C 335.597656 34.847656 339.027344 34.765625 343.8125 34.765625 L 385.960938 34.765625 C 391.59375 34.765625 392.535156 34.605469 394.109375 32.527344 C 394.632813 32.367188 395.773438 32.449219 395.984375 32.765625 C 394.839844 36.046875 394.109375 42.523438 394.425781 44.921875 C 394.003906 45.558594 392.222656 45.558594 391.695313 45.082031 C 391.382813 43.082031 390.652344 40.125 389.089844 39.246094 C 386.691406 37.890625 382.726563 37.246094 376.988281 37.246094 L 369.585938 37.246094 C 366.457031 37.246094 366.5625 37.328125 366.5625 39.964844 L 366.5625 75.527344 "/>
<path style=" stroke:none;fill-rule:nonzero;fill:rgb(16.862488%,8.627319%,36.862183%);fill-opacity:1;" d="M 432.488281 88.746094 C 452.585938 88.746094 468.585938 77.011719 468.585938 60.894531 C 468.585938 46.851563 456.542969 33.515625 432.488281 33.515625 C 411.039063 33.515625 395.460938 45.734375 395.460938 61.691406 C 395.460938 76.054688 409.375 88.746094 432.488281 88.746094 Z M 433.84375 86.265625 C 413.332031 86.265625 405.835938 70.945313 405.835938 59.136719 C 405.835938 41.664063 419.890625 35.996094 430.722656 35.996094 C 450.605469 35.996094 458.210938 50.203125 458.210938 63.367188 C 458.210938 79.085938 446.339844 86.265625 433.84375 86.265625 "/>
<g clip-path="url(#clip1)" clip-rule="nonzero">
<path style=" stroke:none;fill-rule:nonzero;fill:rgb(16.862488%,8.627319%,36.862183%);fill-opacity:1;" d="M 537.800781 86.78125 C 537.800781 90.085938 537.800781 103.183594 538.132813 106.046875 C 537.910156 106.707031 537.253906 107.257813 536.046875 107.257813 C 534.726563 105.386719 531.539063 101.535156 521.972656 90.714844 L 496.453125 61.613281 C 493.484375 58.195313 486.003906 49.15625 483.695313 46.730469 L 483.476563 46.730469 C 483.035156 48.054688 482.925781 50.589844 482.925781 53.898438 L 482.925781 77.929688 C 482.925781 83.109375 483.144531 97.441406 484.90625 100.746094 C 485.675781 101.960938 487.765625 102.621094 490.515625 102.84375 L 493.925781 103.171875 C 494.585938 104.039063 494.476563 105.339844 493.703125 105.882813 C 488.753906 105.664063 484.90625 105.507813 480.839844 105.507813 C 476.226563 105.507813 473.257813 105.664063 469.40625 105.882813 C 468.636719 105.339844 468.523438 103.820313 469.1875 103.171875 L 472.15625 102.84375 C 474.6875 102.621094 476.445313 101.851563 476.996094 100.636719 C 478.535156 96.667969 478.425781 83.21875 478.425781 77.929688 L 478.425781 46.070313 C 478.425781 42.984375 478.316406 40.667969 476.007813 38.132813 C 474.464844 36.589844 471.824219 35.816406 469.1875 35.488281 L 467.316406 35.265625 C 466.65625 34.605469 466.65625 32.957031 467.535156 32.515625 C 472.15625 32.847656 477.984375 32.875 479.964844 32.875 C 481.71875 32.875 483.585938 32.734375 485.015625 32.515625 C 487.214844 38.132813 500.304688 52.683594 503.824219 56.761719 L 514.492188 68.777344 C 521.972656 77.378906 527.472656 83.441406 532.640625 88.730469 L 532.859375 88.730469 C 533.300781 88.179688 533.300781 86.417969 533.300781 84.101563 L 533.300781 60.511719 C 533.300781 55.328125 533.1875 41 531.101563 37.691406 C 530.4375 36.699219 528.679688 36.039063 524.28125 35.488281 L 522.410156 35.265625 C 521.640625 34.605469 521.75 32.84375 522.628906 32.515625 C 527.6875 32.734375 531.429688 32.875 535.605469 32.875 C 540.328125 32.875 543.191406 32.734375 546.929688 32.515625 C 547.8125 33.066406 547.8125 34.605469 547.148438 35.265625 L 545.609375 35.488281 C 542.089844 36.039063 539.890625 36.921875 539.449219 37.804688 C 537.582031 41.769531 537.800781 55.441406 537.800781 60.511719 L 537.800781 86.78125 "/>
</g>
<path style="fill:none;stroke-width:40;stroke-linecap:butt;stroke-linejoin:miter;stroke:rgb(13.699341%,12.199402%,12.5%);stroke-opacity:1;stroke-miterlimit:4;" d="M 609.804688 364.13125 L 4568.125 364.13125 " transform="matrix(0.1,0,0,-0.1,0,140.71)"/>
<path style=" stroke:none;fill-rule:nonzero;fill:rgb(13.699341%,12.199402%,12.5%);fill-opacity:1;" d="M 14.691406 129.25 C 14.488281 129.730469 14.515625 129.753906 15.21875 129.753906 L 18.320313 129.753906 C 19.050781 129.753906 19.097656 129.667969 18.871094 129.101563 L 17.511719 125.679688 C 17.3125 125.175781 17.085938 124.609375 16.933594 124.355469 L 16.882813 124.355469 C 16.808594 124.460938 16.554688 124.964844 16.277344 125.597656 Z M 19.679688 131.117188 C 19.503906 130.65625 19.402344 130.59375 18.644531 130.59375 L 14.84375 130.59375 C 14.210938 130.59375 14.0625 130.65625 13.886719 131.097656 L 13.003906 133.300781 C 12.625 134.246094 12.449219 134.8125 12.449219 135.042969 C 12.449219 135.296875 12.574219 135.421875 13.179688 135.464844 L 14.011719 135.527344 C 14.1875 135.632813 14.1875 135.96875 13.960938 136.054688 C 13.304688 136.011719 12.523438 136.011719 11.339844 135.988281 C 10.507813 135.988281 9.601563 136.03125 8.921875 136.054688 C 8.769531 135.96875 8.71875 135.632813 8.871094 135.527344 L 9.703125 135.464844 C 10.308594 135.421875 10.863281 135.191406 11.214844 134.4375 C 11.667969 133.46875 12.375 132.105469 13.429688 129.753906 L 16 124.085938 C 16.351563 123.328125 16.503906 122.929688 16.429688 122.59375 C 17.035156 122.445313 17.460938 122.070313 17.738281 121.796875 C 17.890625 121.796875 18.066406 121.839844 18.117188 121.984375 C 18.445313 122.910156 18.847656 123.875 19.226563 124.800781 L 22.675781 133.238281 C 23.40625 135.042969 23.734375 135.359375 24.820313 135.464844 L 25.5 135.527344 C 25.675781 135.632813 25.625 135.96875 25.5 136.054688 C 24.464844 136.011719 23.582031 135.988281 22.449219 135.988281 C 21.242188 135.988281 20.285156 136.03125 19.550781 136.054688 C 19.351563 135.96875 19.328125 135.632813 19.503906 135.527344 L 20.234375 135.464844 C 20.761719 135.421875 21.113281 135.296875 21.113281 135.085938 C 21.113281 134.855469 20.988281 134.476563 20.789063 133.972656 L 19.679688 131.117188 "/>
<g clip-path="url(#clip2)" clip-rule="nonzero">
<path style="fill:none;stroke-width:10;stroke-linecap:butt;stroke-linejoin:miter;stroke:rgb(13.699341%,12.199402%,12.5%);stroke-opacity:1;stroke-miterlimit:4;" d="M 146.914063 114.6 C 144.882813 109.795312 145.15625 109.560937 152.1875 109.560937 L 183.203125 109.560937 C 190.507813 109.560937 190.976563 110.420312 188.710938 116.084375 L 175.117188 150.303125 C 173.125 155.342187 170.859375 161.00625 169.335938 163.545312 L 168.828125 163.545312 C 168.085938 162.490625 165.546875 157.451562 162.773438 151.123437 Z M 196.796875 95.928125 C 195.039063 100.5375 194.023438 101.1625 186.445313 101.1625 L 148.4375 101.1625 C 142.109375 101.1625 140.625 100.5375 138.867188 96.123437 L 130.039063 74.092187 C 126.25 64.639062 124.492188 58.975 124.492188 56.670312 C 124.492188 54.13125 125.742188 52.88125 131.796875 52.451562 L 140.117188 51.826562 C 141.875 50.771875 141.875 47.4125 139.609375 46.553125 C 133.046875 46.982812 125.234375 46.982812 113.398438 47.217187 C 105.078125 47.217187 96.015625 46.7875 89.21875 46.553125 C 87.695313 47.4125 87.1875 50.771875 88.710938 51.826562 L 97.03125 52.451562 C 103.085938 52.88125 108.632813 55.185937 112.148438 62.725 C 116.679688 72.4125 123.75 86.045312 134.296875 109.560937 L 160 166.240625 C 163.515625 173.81875 165.039063 177.803125 164.296875 181.1625 C 170.351563 182.646875 174.609375 186.396875 177.382813 189.13125 C 178.90625 189.13125 180.664063 188.701562 181.171875 187.25625 C 184.453125 177.998437 188.476563 168.35 192.265625 159.092187 L 226.757813 74.717187 C 234.0625 56.670312 237.34375 53.50625 248.203125 52.451562 L 255 51.826562 C 256.757813 50.771875 256.25 47.4125 255 46.553125 C 244.648438 46.982812 235.820313 47.217187 224.492188 47.217187 C 212.421875 47.217187 202.851563 46.7875 195.507813 46.553125 C 193.515625 47.4125 193.28125 50.771875 195.039063 51.826562 L 202.34375 52.451562 C 207.617188 52.88125 211.132813 54.13125 211.132813 56.240625 C 211.132813 58.545312 209.882813 62.334375 207.890625 67.373437 Z M 196.796875 95.928125 " transform="matrix(0.1,0,0,-0.1,0,140.71)"/>
</g>
<g clip-path="url(#clip3)" clip-rule="nonzero">
<path style=" stroke:none;fill-rule:nonzero;fill:rgb(13.699341%,12.199402%,12.5%);fill-opacity:1;" d="M 65.261719 125.324219 C 65.261719 122.992188 65.011719 122.738281 63.523438 122.636719 L 62.894531 122.59375 C 62.742188 122.511719 62.792969 122.132813 62.945313 122.070313 C 64.40625 122.109375 65.261719 122.132813 66.320313 122.132813 C 67.328125 122.132813 68.183594 122.109375 69.191406 122.070313 C 69.34375 122.132813 69.394531 122.511719 69.242188 122.59375 L 68.867188 122.636719 C 67.378906 122.804688 67.328125 123.097656 67.328125 125.324219 L 67.328125 133.113281 C 67.328125 134.769531 67.226563 136.21875 66.75 137.1875 C 65.917969 138.863281 64.128906 140.210938 61.785156 140.210938 C 61.484375 140.210938 60.703125 140.1875 60.703125 139.769531 C 60.703125 139.410156 61.082031 138.804688 61.609375 138.804688 C 61.914063 138.804688 62.214844 138.84375 62.542969 138.929688 C 62.894531 139.011719 63.246094 139.074219 63.601563 139.074219 C 64.128906 139.074219 64.429688 138.824219 64.609375 138.53125 C 65.1875 137.542969 65.261719 134.394531 65.261719 133.261719 L 65.261719 125.324219 "/>
</g>
<g clip-path="url(#clip4)" clip-rule="nonzero">
<path style="fill:none;stroke-width:10;stroke-linecap:butt;stroke-linejoin:miter;stroke:rgb(13.699341%,12.199402%,12.5%);stroke-opacity:1;stroke-miterlimit:4;" d="M 652.617188 153.857812 C 652.617188 177.178125 650.117188 179.717187 635.234375 180.732812 L 628.945313 181.1625 C 627.421875 181.982812 627.929688 185.771875 629.453125 186.396875 C 644.0625 186.00625 652.617188 185.771875 663.203125 185.771875 C 673.28125 185.771875 681.835938 186.00625 691.914063 186.396875 C 693.4375 185.771875 693.945313 181.982812 692.421875 181.1625 L 688.671875 180.732812 C 673.789063 179.053125 673.28125 176.123437 673.28125 153.857812 L 673.28125 75.967187 C 673.28125 59.404687 672.265625 44.9125 667.5 35.225 C 659.179688 18.467187 641.289063 4.990625 617.851563 4.990625 C 614.84375 4.990625 607.03125 5.225 607.03125 9.404687 C 607.03125 12.998437 610.820313 19.053125 616.09375 19.053125 C 619.140625 19.053125 622.148438 18.6625 625.429688 17.803125 C 628.945313 16.982812 632.460938 16.357812 636.015625 16.357812 C 641.289063 16.357812 644.296875 18.857812 646.09375 21.7875 C 651.875 31.670312 652.617188 63.154687 652.617188 74.482812 Z M 652.617188 153.857812 " transform="matrix(0.1,0,0,-0.1,0,140.71)"/>
</g>
<path style=" stroke:none;fill-rule:nonzero;fill:rgb(13.699341%,12.199402%,12.5%);fill-opacity:1;" d="M 88.699219 125.28125 C 88.699219 123.097656 88.648438 122.78125 87.160156 122.636719 L 86.757813 122.59375 C 86.605469 122.511719 86.65625 122.132813 86.808594 122.070313 C 87.894531 122.109375 88.75 122.132813 89.78125 122.132813 L 94.519531 122.132813 C 96.128906 122.132813 97.617188 122.132813 97.917969 122.070313 C 98.070313 122.425781 98.222656 123.9375 98.324219 124.859375 C 98.222656 124.988281 97.820313 125.027344 97.691406 124.902344 C 97.316406 123.914063 97.085938 123.183594 95.777344 122.910156 C 95.25 122.804688 94.441406 122.78125 93.335938 122.78125 L 91.519531 122.78125 C 90.765625 122.78125 90.765625 122.824219 90.765625 123.621094 L 90.765625 127.820313 C 90.765625 128.410156 90.839844 128.410156 91.59375 128.410156 L 93.054688 128.410156 C 94.113281 128.410156 94.894531 128.367188 95.199219 128.285156 C 95.5 128.199219 95.675781 128.074219 95.800781 127.550781 L 96.003906 126.6875 C 96.128906 126.5625 96.558594 126.5625 96.660156 126.707031 C 96.660156 127.214844 96.558594 128.03125 96.558594 128.828125 C 96.558594 129.585938 96.660156 130.382813 96.660156 130.84375 C 96.558594 130.992188 96.128906 130.992188 96.003906 130.867188 L 95.777344 130.046875 C 95.675781 129.667969 95.5 129.355469 94.996094 129.25 C 94.644531 129.164063 94.039063 129.144531 93.054688 129.144531 L 91.59375 129.144531 C 90.839844 129.144531 90.765625 129.164063 90.765625 129.710938 L 90.765625 132.671875 C 90.765625 133.785156 90.839844 134.496094 91.242188 134.855469 C 91.546875 135.105469 92.074219 135.339844 94.289063 135.339844 C 96.230469 135.339844 96.960938 135.253906 97.515625 135.023438 C 97.96875 134.8125 98.648438 134.078125 99.304688 132.984375 C 99.480469 132.882813 99.832031 132.945313 99.933594 133.132813 C 99.757813 133.867188 99.128906 135.484375 98.800781 136.054688 C 96.53125 136.011719 94.289063 135.988281 92.050781 135.988281 L 89.78125 135.988281 C 88.699219 135.988281 87.84375 136.011719 86.355469 136.054688 C 86.203125 135.988281 86.15625 135.652344 86.304688 135.527344 L 87.136719 135.464844 C 88.574219 135.359375 88.699219 135.042969 88.699219 132.839844 L 88.699219 125.28125 "/>
<g clip-path="url(#clip5)" clip-rule="nonzero">
<path style="fill:none;stroke-width:10;stroke-linecap:butt;stroke-linejoin:miter;stroke:rgb(13.699341%,12.199402%,12.5%);stroke-opacity:1;stroke-miterlimit:4;" d="M 886.992188 154.2875 C 886.992188 176.123437 886.484375 179.2875 871.601563 180.732812 L 867.578125 181.1625 C 866.054688 181.982812 866.5625 185.771875 868.085938 186.396875 C 878.945313 186.00625 887.5 185.771875 897.8125 185.771875 L 945.195313 185.771875 C 961.289063 185.771875 976.171875 185.771875 979.179688 186.396875 C 980.703125 182.842187 982.226563 167.725 983.242188 158.50625 C 982.226563 157.217187 978.203125 156.826562 976.914063 158.076562 C 973.164063 167.959375 970.859375 175.264062 957.773438 177.998437 C 952.5 179.053125 944.414063 179.2875 933.359375 179.2875 L 915.195313 179.2875 C 907.65625 179.2875 907.65625 178.857812 907.65625 170.889062 L 907.65625 128.896875 C 907.65625 122.998437 908.398438 122.998437 915.9375 122.998437 L 930.546875 122.998437 C 941.132813 122.998437 948.945313 123.428125 951.992188 124.248437 C 955 125.107812 956.757813 126.357812 958.007813 131.592187 L 960.039063 140.225 C 961.289063 141.475 965.585938 141.475 966.601563 140.029687 C 966.601563 134.951562 965.585938 126.7875 965.585938 118.81875 C 965.585938 111.240625 966.601563 103.271875 966.601563 98.6625 C 965.585938 97.178125 961.289063 97.178125 960.039063 98.428125 L 957.773438 106.63125 C 956.757813 110.420312 955 113.545312 949.960938 114.6 C 946.445313 115.459375 940.390625 115.654687 930.546875 115.654687 L 915.9375 115.654687 C 908.398438 115.654687 907.65625 115.459375 907.65625 109.990625 L 907.65625 80.38125 C 907.65625 69.248437 908.398438 62.139062 912.421875 58.545312 C 915.46875 56.045312 920.742188 53.701562 942.890625 53.701562 C 962.304688 53.701562 969.609375 54.560937 975.15625 56.865625 C 979.6875 58.975 986.484375 66.31875 993.046875 77.25625 C 994.804688 78.271875 998.320313 77.646875 999.335938 75.771875 C 997.578125 68.428125 991.289063 52.25625 988.007813 46.553125 C 965.3125 46.982812 942.890625 47.217187 920.507813 47.217187 L 897.8125 47.217187 C 886.992188 47.217187 878.4375 46.982812 863.554688 46.553125 C 862.03125 47.217187 861.5625 50.576562 863.046875 51.826562 L 871.367188 52.451562 C 885.742188 53.50625 886.992188 56.670312 886.992188 78.701562 Z M 886.992188 154.2875 " transform="matrix(0.1,0,0,-0.1,0,140.71)"/>
</g>
<path style=" stroke:none;fill-rule:nonzero;fill:rgb(13.699341%,12.199402%,12.5%);fill-opacity:1;" d="M 120.953125 136.324219 C 118.835938 136.324219 117.503906 135.777344 117.023438 135.550781 C 116.722656 135.085938 116.394531 133.597656 116.34375 132.609375 C 116.46875 132.460938 116.847656 132.421875 116.949219 132.546875 C 117.324219 133.617188 118.359375 135.675781 121.28125 135.675781 C 123.398438 135.675781 124.429688 134.519531 124.429688 133.261719 C 124.429688 132.335938 124.203125 131.308594 122.363281 130.320313 L 119.972656 129.019531 C 118.710938 128.324219 117.25 127.128906 117.25 125.40625 C 117.25 123.410156 119.113281 121.796875 122.390625 121.796875 C 123.171875 121.796875 124.078125 121.902344 124.730469 122.070313 C 125.058594 122.132813 125.414063 122.195313 125.613281 122.195313 C 125.839844 122.699219 126.066406 123.875 126.066406 124.757813 C 125.96875 124.882813 125.5625 124.945313 125.4375 124.820313 C 125.109375 123.8125 124.429688 122.445313 122.011719 122.445313 C 119.542969 122.445313 119.015625 123.8125 119.015625 124.777344 C 119.015625 125.996094 120.222656 126.855469 121.15625 127.359375 L 123.171875 128.410156 C 124.757813 129.226563 126.320313 130.445313 126.320313 132.441406 C 126.320313 134.75 124.230469 136.324219 120.953125 136.324219 "/>
<g clip-path="url(#clip6)" clip-rule="nonzero">
<path style="fill:none;stroke-width:10;stroke-linecap:butt;stroke-linejoin:miter;stroke:rgb(13.699341%,12.199402%,12.5%);stroke-opacity:1;stroke-miterlimit:4;" d="M 1209.53125 43.857812 C 1188.359375 43.857812 1175.039063 49.326562 1170.234375 51.592187 C 1167.226563 56.240625 1163.945313 71.123437 1163.4375 81.00625 C 1164.6875 82.490625 1168.476563 82.88125 1169.492188 81.63125 C 1173.242188 70.928125 1183.59375 50.342187 1212.8125 50.342187 C 1233.984375 50.342187 1244.296875 61.904687 1244.296875 74.482812 C 1244.296875 83.740625 1242.03125 94.014062 1223.632813 103.896875 L 1199.726563 116.904687 C 1187.109375 123.857812 1172.5 135.810937 1172.5 153.0375 C 1172.5 172.998437 1191.132813 189.13125 1223.90625 189.13125 C 1231.71875 189.13125 1240.78125 188.076562 1247.304688 186.396875 C 1250.585938 185.771875 1254.140625 185.146875 1256.132813 185.146875 C 1258.398438 180.107812 1260.664063 168.35 1260.664063 159.521875 C 1259.6875 158.271875 1255.625 157.646875 1254.375 158.896875 C 1251.09375 168.975 1244.296875 182.646875 1220.117188 182.646875 C 1195.429688 182.646875 1190.15625 168.975 1190.15625 159.326562 C 1190.15625 147.139062 1202.226563 138.545312 1211.5625 133.50625 L 1231.71875 122.998437 C 1247.578125 114.834375 1263.203125 102.646875 1263.203125 82.685937 C 1263.203125 59.6 1242.304688 43.857812 1209.53125 43.857812 Z M 1209.53125 43.857812 " transform="matrix(0.1,0,0,-0.1,0,140.71)"/>
</g>
<path style=" stroke:none;fill-rule:nonzero;fill:rgb(13.699341%,12.199402%,12.5%);fill-opacity:1;" d="M 157.988281 127.402344 C 157.988281 126.101563 157.9375 123.6875 157.511719 123.054688 C 157.335938 122.804688 156.878906 122.65625 156.25 122.613281 L 155.621094 122.574219 C 155.46875 122.425781 155.519531 122.152344 155.671875 122.070313 C 156.628906 122.109375 157.5625 122.132813 158.542969 122.132813 C 159.601563 122.132813 160.28125 122.109375 161.1875 122.070313 C 161.390625 122.175781 161.363281 122.445313 161.238281 122.574219 L 160.632813 122.613281 C 160.003906 122.65625 159.5 122.847656 159.375 123.117188 C 158.996094 123.8125 159.019531 126.226563 159.019531 127.402344 L 159.019531 129.773438 C 159.019531 131.601563 158.667969 133.53125 157.257813 134.792969 C 156.175781 135.777344 154.3125 136.324219 152.445313 136.324219 C 150.707031 136.324219 148.96875 136.054688 147.734375 135.171875 C 146.398438 134.246094 145.769531 132.714844 145.769531 130.214844 L 145.769531 125.261719 C 145.769531 123.078125 145.71875 122.71875 144.257813 122.613281 L 143.628906 122.574219 C 143.476563 122.488281 143.527344 122.132813 143.679688 122.070313 C 144.9375 122.109375 145.796875 122.132813 146.804688 122.132813 C 147.835938 122.132813 148.667969 122.109375 149.902344 122.070313 C 150.054688 122.132813 150.105469 122.488281 149.953125 122.574219 L 149.347656 122.613281 C 147.886719 122.71875 147.835938 123.078125 147.835938 125.261719 L 147.835938 129.796875 C 147.835938 133.175781 149.097656 135.402344 152.949219 135.402344 C 156.601563 135.402344 157.988281 133.007813 157.988281 129.816406 L 157.988281 127.402344 "/>
<g clip-path="url(#clip7)" clip-rule="nonzero">
<path style="fill:none;stroke-width:10;stroke-linecap:butt;stroke-linejoin:miter;stroke:rgb(13.699341%,12.199402%,12.5%);stroke-opacity:1;stroke-miterlimit:4;" d="M 1579.882813 133.076562 C 1579.882813 146.084375 1579.375 170.225 1575.117188 176.553125 C 1573.359375 179.053125 1568.789063 180.5375 1562.5 180.967187 L 1556.210938 181.357812 C 1554.6875 182.842187 1555.195313 185.576562 1556.71875 186.396875 C 1566.289063 186.00625 1575.625 185.771875 1585.429688 185.771875 C 1596.015625 185.771875 1602.8125 186.00625 1611.875 186.396875 C 1613.90625 185.342187 1613.632813 182.646875 1612.382813 181.357812 L 1606.328125 180.967187 C 1600.039063 180.5375 1595 178.623437 1593.75 175.928125 C 1589.960938 168.975 1590.195313 144.834375 1590.195313 133.076562 L 1590.195313 109.365625 C 1590.195313 91.084375 1586.679688 71.7875 1572.578125 59.170312 C 1561.757813 49.326562 1543.125 43.857812 1524.453125 43.857812 C 1507.070313 43.857812 1489.6875 46.553125 1477.34375 55.38125 C 1463.984375 64.639062 1457.695313 79.951562 1457.695313 104.951562 L 1457.695313 154.482812 C 1457.695313 176.31875 1457.1875 179.9125 1442.578125 180.967187 L 1436.289063 181.357812 C 1434.765625 182.217187 1435.273438 185.771875 1436.796875 186.396875 C 1449.375 186.00625 1457.96875 185.771875 1468.046875 185.771875 C 1478.359375 185.771875 1486.679688 186.00625 1499.023438 186.396875 C 1500.546875 185.771875 1501.054688 182.217187 1499.53125 181.357812 L 1493.476563 180.967187 C 1478.867188 179.9125 1478.359375 176.31875 1478.359375 154.482812 L 1478.359375 109.13125 C 1478.359375 75.342187 1490.976563 53.076562 1529.492188 53.076562 C 1566.015625 53.076562 1579.882813 77.021875 1579.882813 108.935937 Z M 1579.882813 133.076562 " transform="matrix(0.1,0,0,-0.1,0,140.71)"/>
</g>
<path style=" stroke:none;fill-rule:nonzero;fill:rgb(13.699341%,12.199402%,12.5%);fill-opacity:1;" d="M 179.886719 125.324219 C 179.886719 123.097656 179.835938 122.738281 178.351563 122.636719 L 177.722656 122.59375 C 177.570313 122.511719 177.621094 122.132813 177.769531 122.070313 C 179.03125 122.109375 179.886719 122.132813 180.945313 122.132813 C 181.953125 122.132813 182.808594 122.109375 184.070313 122.070313 C 184.222656 122.132813 184.269531 122.511719 184.121094 122.59375 L 183.488281 122.636719 C 182.003906 122.738281 181.953125 123.097656 181.953125 125.324219 L 181.953125 132.796875 C 181.953125 135.023438 182.003906 135.316406 183.488281 135.464844 L 184.121094 135.527344 C 184.269531 135.609375 184.222656 135.988281 184.070313 136.054688 C 182.808594 136.011719 181.953125 135.988281 180.945313 135.988281 C 179.886719 135.988281 179.03125 136.011719 177.769531 136.054688 C 177.621094 135.988281 177.570313 135.652344 177.722656 135.527344 L 178.351563 135.464844 C 179.835938 135.316406 179.886719 135.023438 179.886719 132.796875 L 179.886719 125.324219 "/>
<g clip-path="url(#clip8)" clip-rule="nonzero">
<path style="fill:none;stroke-width:10;stroke-linecap:butt;stroke-linejoin:miter;stroke:rgb(13.699341%,12.199402%,12.5%);stroke-opacity:1;stroke-miterlimit:4;" d="M 1798.867188 153.857812 C 1798.867188 176.123437 1798.359375 179.717187 1783.515625 180.732812 L 1777.226563 181.1625 C 1775.703125 181.982812 1776.210938 185.771875 1777.695313 186.396875 C 1790.3125 186.00625 1798.867188 185.771875 1809.453125 185.771875 C 1819.53125 185.771875 1828.085938 186.00625 1840.703125 186.396875 C 1842.226563 185.771875 1842.695313 181.982812 1841.210938 181.1625 L 1834.882813 180.732812 C 1820.039063 179.717187 1819.53125 176.123437 1819.53125 153.857812 L 1819.53125 79.13125 C 1819.53125 56.865625 1820.039063 53.935937 1834.882813 52.451562 L 1841.210938 51.826562 C 1842.695313 51.00625 1842.226563 47.217187 1840.703125 46.553125 C 1828.085938 46.982812 1819.53125 47.217187 1809.453125 47.217187 C 1798.867188 47.217187 1790.3125 46.982812 1777.695313 46.553125 C 1776.210938 47.217187 1775.703125 50.576562 1777.226563 51.826562 L 1783.515625 52.451562 C 1798.359375 53.935937 1798.867188 56.865625 1798.867188 79.13125 Z M 1798.867188 153.857812 " transform="matrix(0.1,0,0,-0.1,0,140.71)"/>
</g>
<path style=" stroke:none;fill-rule:nonzero;fill:rgb(13.699341%,12.199402%,12.5%);fill-opacity:1;" d="M 209.570313 132.839844 C 209.570313 135.042969 209.617188 135.339844 211.078125 135.464844 L 211.886719 135.527344 C 212.039063 135.609375 211.988281 135.988281 211.835938 136.054688 C 210.398438 136.011719 209.542969 135.988281 208.535156 135.988281 C 207.527344 135.988281 206.644531 136.011719 205.035156 136.054688 C 204.882813 135.988281 204.832031 135.632813 205.035156 135.527344 L 205.941406 135.464844 C 207.378906 135.359375 207.503906 135.042969 207.503906 132.839844 L 207.503906 123.453125 C 207.503906 122.804688 207.503906 122.78125 206.746094 122.78125 L 205.359375 122.78125 C 204.277344 122.78125 202.894531 122.824219 202.261719 123.308594 C 201.65625 123.769531 201.40625 124.230469 201.128906 124.757813 C 200.929688 124.882813 200.574219 124.777344 200.472656 124.609375 C 200.878906 123.664063 201.253906 122.320313 201.433594 121.480469 C 201.507813 121.4375 201.835938 121.417969 201.910156 121.480469 C 202.0625 122.152344 202.894531 122.132813 204.050781 122.132813 L 214.253906 122.132813 C 215.613281 122.132813 215.839844 122.089844 216.21875 121.542969 C 216.34375 121.503906 216.621094 121.523438 216.671875 121.605469 C 216.394531 122.46875 216.21875 124.167969 216.296875 124.800781 C 216.195313 124.964844 215.765625 124.964844 215.640625 124.839844 C 215.5625 124.316406 215.386719 123.539063 215.011719 123.308594 C 214.429688 122.949219 213.472656 122.78125 212.089844 122.78125 L 210.300781 122.78125 C 209.542969 122.78125 209.570313 122.804688 209.570313 123.496094 L 209.570313 132.839844 "/>
<g clip-path="url(#clip9)" clip-rule="nonzero">
<path style="fill:none;stroke-width:10;stroke-linecap:butt;stroke-linejoin:miter;stroke:rgb(13.699341%,12.199402%,12.5%);stroke-opacity:1;stroke-miterlimit:4;" d="M 2095.703125 78.701562 C 2095.703125 56.670312 2096.171875 53.701562 2110.78125 52.451562 L 2118.867188 51.826562 C 2120.390625 51.00625 2119.882813 47.217187 2118.359375 46.553125 C 2103.984375 46.982812 2095.429688 47.217187 2085.351563 47.217187 C 2075.273438 47.217187 2066.445313 46.982812 2050.351563 46.553125 C 2048.828125 47.217187 2048.320313 50.771875 2050.351563 51.826562 L 2059.414063 52.451562 C 2073.789063 53.50625 2075.039063 56.670312 2075.039063 78.701562 L 2075.039063 172.56875 C 2075.039063 179.053125 2075.039063 179.2875 2067.460938 179.2875 L 2053.59375 179.2875 C 2042.773438 179.2875 2028.945313 178.857812 2022.617188 174.014062 C 2016.5625 169.404687 2014.0625 164.795312 2011.289063 159.521875 C 2009.296875 158.271875 2005.742188 159.326562 2004.726563 161.00625 C 2008.789063 170.459375 2012.539063 183.896875 2014.335938 192.295312 C 2015.078125 192.725 2018.359375 192.920312 2019.101563 192.295312 C 2020.625 185.576562 2028.945313 185.771875 2040.507813 185.771875 L 2142.539063 185.771875 C 2156.132813 185.771875 2158.398438 186.201562 2162.1875 191.670312 C 2163.4375 192.060937 2166.210938 191.865625 2166.71875 191.045312 C 2163.945313 182.4125 2162.1875 165.420312 2162.96875 159.092187 C 2161.953125 157.451562 2157.65625 157.451562 2156.40625 158.701562 C 2155.625 163.935937 2153.867188 171.709375 2150.117188 174.014062 C 2144.296875 177.607812 2134.726563 179.2875 2120.898438 179.2875 L 2103.007813 179.2875 C 2095.429688 179.2875 2095.703125 179.053125 2095.703125 172.139062 Z M 2095.703125 78.701562 " transform="matrix(0.1,0,0,-0.1,0,140.71)"/>
</g>
<path style=" stroke:none;fill-rule:nonzero;fill:rgb(13.699341%,12.199402%,12.5%);fill-opacity:1;" d="M 268.710938 127.402344 C 268.710938 126.101563 268.660156 123.6875 268.230469 123.054688 C 268.054688 122.804688 267.601563 122.65625 266.972656 122.613281 L 266.339844 122.574219 C 266.191406 122.425781 266.238281 122.152344 266.390625 122.070313 C 267.347656 122.109375 268.28125 122.132813 269.265625 122.132813 C 270.320313 122.132813 271.003906 122.109375 271.910156 122.070313 C 272.109375 122.175781 272.085938 122.445313 271.960938 122.574219 L 271.355469 122.613281 C 270.726563 122.65625 270.222656 122.847656 270.09375 123.117188 C 269.71875 123.8125 269.742188 126.226563 269.742188 127.402344 L 269.742188 129.773438 C 269.742188 131.601563 269.390625 133.53125 267.980469 134.792969 C 266.894531 135.777344 265.03125 136.324219 263.167969 136.324219 C 261.429688 136.324219 259.691406 136.054688 258.457031 135.171875 C 257.121094 134.246094 256.492188 132.714844 256.492188 130.214844 L 256.492188 125.261719 C 256.492188 123.078125 256.441406 122.71875 254.980469 122.613281 L 254.351563 122.574219 C 254.199219 122.488281 254.25 122.132813 254.398438 122.070313 C 255.660156 122.109375 256.515625 122.132813 257.523438 122.132813 C 258.558594 122.132813 259.386719 122.109375 260.621094 122.070313 C 260.773438 122.132813 260.824219 122.488281 260.671875 122.574219 L 260.066406 122.613281 C 258.605469 122.71875 258.558594 123.078125 258.558594 125.261719 L 258.558594 129.796875 C 258.558594 133.175781 259.816406 135.402344 263.671875 135.402344 C 267.324219 135.402344 268.710938 133.007813 268.710938 129.816406 L 268.710938 127.402344 "/>
<g clip-path="url(#clip10)" clip-rule="nonzero">
<path style="fill:none;stroke-width:10;stroke-linecap:butt;stroke-linejoin:miter;stroke:rgb(13.699341%,12.199402%,12.5%);stroke-opacity:1;stroke-miterlimit:4;" d="M 2687.109375 133.076562 C 2687.109375 146.084375 2686.601563 170.225 2682.304688 176.553125 C 2680.546875 179.053125 2676.015625 180.5375 2669.726563 180.967187 L 2663.398438 181.357812 C 2661.914063 182.842187 2662.382813 185.576562 2663.90625 186.396875 C 2673.476563 186.00625 2682.8125 185.771875 2692.65625 185.771875 C 2703.203125 185.771875 2710.039063 186.00625 2719.101563 186.396875 C 2721.09375 185.342187 2720.859375 182.646875 2719.609375 181.357812 L 2713.554688 180.967187 C 2707.265625 180.5375 2702.226563 178.623437 2700.9375 175.928125 C 2697.1875 168.975 2697.421875 144.834375 2697.421875 133.076562 L 2697.421875 109.365625 C 2697.421875 91.084375 2693.90625 71.7875 2679.804688 59.170312 C 2668.945313 49.326562 2650.3125 43.857812 2631.679688 43.857812 C 2614.296875 43.857812 2596.914063 46.553125 2584.570313 55.38125 C 2571.210938 64.639062 2564.921875 79.951562 2564.921875 104.951562 L 2564.921875 154.482812 C 2564.921875 176.31875 2564.414063 179.9125 2549.804688 180.967187 L 2543.515625 181.357812 C 2541.992188 182.217187 2542.5 185.771875 2543.984375 186.396875 C 2556.601563 186.00625 2565.15625 185.771875 2575.234375 185.771875 C 2585.585938 185.771875 2593.867188 186.00625 2606.210938 186.396875 C 2607.734375 185.771875 2608.242188 182.217187 2606.71875 181.357812 L 2600.664063 180.967187 C 2586.054688 179.9125 2585.585938 176.31875 2585.585938 154.482812 L 2585.585938 109.13125 C 2585.585938 75.342187 2598.164063 53.076562 2636.71875 53.076562 C 2673.242188 53.076562 2687.109375 77.021875 2687.109375 108.935937 Z M 2687.109375 133.076562 " transform="matrix(0.1,0,0,-0.1,0,140.71)"/>
</g>
<path style=" stroke:none;fill-rule:nonzero;fill:rgb(13.699341%,12.199402%,12.5%);fill-opacity:1;" d="M 304.160156 132.421875 C 304.160156 133.050781 304.160156 135.550781 304.234375 136.09375 C 304.1875 136.21875 304.035156 136.324219 303.757813 136.324219 C 303.457031 135.96875 302.726563 135.234375 300.535156 133.15625 L 294.6875 127.609375 C 294.007813 126.960938 292.296875 125.238281 291.765625 124.777344 L 291.71875 124.777344 C 291.613281 125.027344 291.589844 125.511719 291.589844 126.140625 L 291.589844 130.71875 C 291.589844 131.707031 291.640625 134.4375 292.042969 135.066406 C 292.222656 135.296875 292.699219 135.421875 293.328125 135.464844 L 294.109375 135.527344 C 294.261719 135.695313 294.234375 135.945313 294.058594 136.054688 C 292.925781 136.011719 292.042969 135.988281 291.109375 135.988281 C 290.054688 135.988281 289.371094 136.011719 288.492188 136.054688 C 288.316406 135.945313 288.289063 135.652344 288.441406 135.527344 L 289.121094 135.464844 C 289.699219 135.421875 290.105469 135.273438 290.230469 135.042969 C 290.582031 134.289063 290.558594 131.726563 290.558594 130.71875 L 290.558594 124.652344 C 290.558594 124.0625 290.53125 123.621094 290.003906 123.140625 C 289.648438 122.847656 289.046875 122.699219 288.441406 122.636719 L 288.015625 122.59375 C 287.859375 122.46875 287.859375 122.152344 288.0625 122.070313 C 289.121094 122.132813 290.457031 122.132813 290.910156 122.132813 C 291.3125 122.132813 291.742188 122.109375 292.070313 122.070313 C 292.570313 123.140625 295.570313 125.910156 296.378906 126.6875 L 298.820313 128.976563 C 300.535156 130.613281 301.792969 131.769531 302.976563 132.777344 L 303.027344 132.777344 C 303.128906 132.671875 303.128906 132.335938 303.128906 131.894531 L 303.128906 127.402344 C 303.128906 126.414063 303.105469 123.6875 302.625 123.054688 C 302.472656 122.867188 302.070313 122.738281 301.0625 122.636719 L 300.636719 122.59375 C 300.457031 122.46875 300.484375 122.132813 300.683594 122.070313 C 301.84375 122.109375 302.699219 122.132813 303.65625 122.132813 C 304.738281 122.132813 305.394531 122.109375 306.253906 122.070313 C 306.453125 122.175781 306.453125 122.46875 306.304688 122.59375 L 305.949219 122.636719 C 305.144531 122.738281 304.640625 122.910156 304.539063 123.078125 C 304.109375 123.832031 304.160156 126.4375 304.160156 127.402344 L 304.160156 132.421875 "/>
<g clip-path="url(#clip11)" clip-rule="nonzero">
<path style="fill:none;stroke-width:10;stroke-linecap:butt;stroke-linejoin:miter;stroke:rgb(13.699341%,12.199402%,12.5%);stroke-opacity:1;stroke-miterlimit:4;" d="M 3041.601563 82.88125 C 3041.601563 76.592187 3041.601563 51.592187 3042.34375 46.1625 C 3041.875 44.9125 3040.351563 43.857812 3037.578125 43.857812 C 3034.570313 47.4125 3027.265625 54.75625 3005.351563 75.5375 L 2946.875 131.00625 C 2940.078125 137.490625 2922.96875 154.717187 2917.65625 159.326562 L 2917.1875 159.326562 C 2916.132813 156.826562 2915.898438 151.982812 2915.898438 145.69375 L 2915.898438 99.9125 C 2915.898438 90.029687 2916.40625 62.725 2920.429688 56.435937 C 2922.226563 54.13125 2926.992188 52.88125 2933.28125 52.451562 L 2941.09375 51.826562 C 2942.617188 50.146875 2942.34375 47.646875 2940.585938 46.553125 C 2929.257813 46.982812 2920.429688 47.217187 2911.09375 47.217187 C 2900.546875 47.217187 2893.710938 46.982812 2884.921875 46.553125 C 2883.164063 47.646875 2882.890625 50.576562 2884.414063 51.826562 L 2891.210938 52.451562 C 2896.992188 52.88125 2901.054688 54.365625 2902.304688 56.670312 C 2905.820313 64.209375 2905.585938 89.834375 2905.585938 99.9125 L 2905.585938 160.576562 C 2905.585938 166.475 2905.3125 170.889062 2900.039063 175.69375 C 2896.484375 178.623437 2890.46875 180.107812 2884.414063 180.732812 L 2880.15625 181.1625 C 2878.59375 182.4125 2878.59375 185.576562 2880.625 186.396875 C 2891.210938 185.771875 2904.570313 185.771875 2909.101563 185.771875 C 2913.125 185.771875 2917.421875 186.00625 2920.703125 186.396875 C 2925.703125 175.69375 2955.703125 147.998437 2963.789063 140.225 L 2988.203125 117.334375 C 3005.351563 100.967187 3017.929688 89.404687 3029.765625 79.326562 L 3030.273438 79.326562 C 3031.289063 80.38125 3031.289063 83.740625 3031.289063 88.154687 L 3031.289063 133.076562 C 3031.289063 142.959375 3031.054688 170.225 3026.25 176.553125 C 3024.726563 178.428125 3020.703125 179.717187 3010.625 180.732812 L 3006.367188 181.1625 C 3004.570313 182.4125 3004.84375 185.771875 3006.835938 186.396875 C 3018.4375 186.00625 3026.992188 185.771875 3036.5625 185.771875 C 3047.382813 185.771875 3053.945313 186.00625 3062.539063 186.396875 C 3064.53125 185.342187 3064.53125 182.4125 3063.046875 181.1625 L 3059.492188 180.732812 C 3051.445313 179.717187 3046.40625 177.998437 3045.390625 176.31875 C 3041.09375 168.779687 3041.601563 142.725 3041.601563 133.076562 Z M 3041.601563 82.88125 " transform="matrix(0.1,0,0,-0.1,0,140.71)"/>
</g>
<path style=" stroke:none;fill-rule:nonzero;fill:rgb(13.699341%,12.199402%,12.5%);fill-opacity:1;" d="M 325.460938 125.324219 C 325.460938 123.097656 325.40625 122.738281 323.921875 122.636719 L 323.292969 122.59375 C 323.140625 122.511719 323.191406 122.132813 323.34375 122.070313 C 324.601563 122.109375 325.460938 122.132813 326.515625 122.132813 C 327.523438 122.132813 328.382813 122.109375 329.640625 122.070313 C 329.792969 122.132813 329.84375 122.511719 329.691406 122.59375 L 329.0625 122.636719 C 327.574219 122.738281 327.523438 123.097656 327.523438 125.324219 L 327.523438 132.796875 C 327.523438 135.023438 327.574219 135.316406 329.0625 135.464844 L 329.691406 135.527344 C 329.84375 135.609375 329.792969 135.988281 329.640625 136.054688 C 328.382813 136.011719 327.523438 135.988281 326.515625 135.988281 C 325.460938 135.988281 324.601563 136.011719 323.34375 136.054688 C 323.191406 135.988281 323.140625 135.652344 323.292969 135.527344 L 323.921875 135.464844 C 325.40625 135.316406 325.460938 135.023438 325.460938 132.796875 L 325.460938 125.324219 "/>
<g clip-path="url(#clip12)" clip-rule="nonzero">
<path style="fill:none;stroke-width:10;stroke-linecap:butt;stroke-linejoin:miter;stroke:rgb(13.699341%,12.199402%,12.5%);stroke-opacity:1;stroke-miterlimit:4;" d="M 3254.609375 153.857812 C 3254.609375 176.123437 3254.0625 179.717187 3239.21875 180.732812 L 3232.929688 181.1625 C 3231.40625 181.982812 3231.914063 185.771875 3233.4375 186.396875 C 3246.015625 186.00625 3254.609375 185.771875 3265.15625 185.771875 C 3275.234375 185.771875 3283.828125 186.00625 3296.40625 186.396875 C 3297.929688 185.771875 3298.4375 181.982812 3296.914063 181.1625 L 3290.625 180.732812 C 3275.742188 179.717187 3275.234375 176.123437 3275.234375 153.857812 L 3275.234375 79.13125 C 3275.234375 56.865625 3275.742188 53.935937 3290.625 52.451562 L 3296.914063 51.826562 C 3298.4375 51.00625 3297.929688 47.217187 3296.40625 46.553125 C 3283.828125 46.982812 3275.234375 47.217187 3265.15625 47.217187 C 3254.609375 47.217187 3246.015625 46.982812 3233.4375 46.553125 C 3231.914063 47.217187 3231.40625 50.576562 3232.929688 51.826562 L 3239.21875 52.451562 C 3254.0625 53.935937 3254.609375 56.865625 3254.609375 79.13125 Z M 3254.609375 153.857812 " transform="matrix(0.1,0,0,-0.1,0,140.71)"/>
</g>
<path style=" stroke:none;fill-rule:nonzero;fill:rgb(13.699341%,12.199402%,12.5%);fill-opacity:1;" d="M 348.390625 124.355469 C 347.808594 123.183594 347.429688 122.738281 346.347656 122.636719 L 345.894531 122.59375 C 345.71875 122.46875 345.742188 122.175781 345.945313 122.070313 C 346.675781 122.109375 347.480469 122.132813 348.5625 122.132813 C 349.671875 122.132813 350.554688 122.109375 351.613281 122.070313 C 351.789063 122.152344 351.839844 122.46875 351.664063 122.59375 L 351.285156 122.636719 C 350.328125 122.738281 350.125 122.867188 350.101563 123.035156 C 350.152344 123.242188 350.578125 124.378906 351.359375 125.972656 C 352.519531 128.410156 353.679688 130.824219 354.9375 133.21875 C 355.71875 131.832031 356.804688 129.667969 357.355469 128.558594 C 358.113281 127.128906 359.269531 124.757813 359.699219 123.851563 C 359.898438 123.410156 359.925781 123.183594 359.925781 123.035156 C 359.925781 122.886719 359.675781 122.71875 358.792969 122.636719 L 358.339844 122.59375 C 358.164063 122.46875 358.214844 122.152344 358.390625 122.070313 C 359.09375 122.109375 360.054688 122.132813 361.011719 122.132813 C 361.839844 122.132813 362.621094 122.109375 363.453125 122.070313 C 363.628906 122.152344 363.628906 122.488281 363.503906 122.59375 L 362.746094 122.636719 C 362.144531 122.679688 361.765625 122.929688 361.4375 123.371094 C 360.730469 124.355469 359.75 126.058594 358.617188 128.199219 L 357.257813 130.78125 C 356.246094 132.714844 355.0625 135.148438 354.636719 136.261719 C 354.558594 136.304688 354.460938 136.324219 354.359375 136.324219 C 354.234375 136.324219 354.105469 136.304688 353.980469 136.261719 C 353.703125 135.382813 353.273438 134.351563 352.820313 133.46875 L 348.390625 124.355469 "/>
<g clip-path="url(#clip13)" clip-rule="nonzero">
<path style="fill:none;stroke-width:10;stroke-linecap:butt;stroke-linejoin:miter;stroke:rgb(13.699341%,12.199402%,12.5%);stroke-opacity:1;stroke-miterlimit:4;" d="M 3483.90625 163.545312 C 3478.085938 175.264062 3474.296875 179.717187 3463.476563 180.732812 L 3458.945313 181.1625 C 3457.1875 182.4125 3457.421875 185.342187 3459.453125 186.396875 C 3466.757813 186.00625 3474.804688 185.771875 3485.625 185.771875 C 3496.71875 185.771875 3505.546875 186.00625 3516.132813 186.396875 C 3517.890625 185.576562 3518.398438 182.4125 3516.640625 181.1625 L 3512.851563 180.732812 C 3503.28125 179.717187 3501.25 178.428125 3501.015625 176.748437 C 3501.523438 174.678125 3505.78125 163.310937 3513.59375 147.373437 C 3525.195313 122.998437 3536.796875 98.857812 3549.375 74.9125 C 3557.1875 88.779687 3568.046875 110.420312 3573.554688 121.514062 C 3581.132813 135.810937 3592.695313 159.521875 3596.992188 168.584375 C 3598.984375 172.998437 3599.257813 175.264062 3599.257813 176.748437 C 3599.257813 178.232812 3596.757813 179.9125 3587.929688 180.732812 L 3583.398438 181.1625 C 3581.640625 182.4125 3582.148438 185.576562 3583.90625 186.396875 C 3590.9375 186.00625 3600.546875 185.771875 3610.117188 185.771875 C 3618.398438 185.771875 3626.210938 186.00625 3634.53125 186.396875 C 3636.289063 185.576562 3636.289063 182.217187 3635.039063 181.1625 L 3627.460938 180.732812 C 3621.445313 180.303125 3617.65625 177.803125 3614.375 173.389062 C 3607.304688 163.545312 3597.5 146.514062 3586.171875 125.107812 L 3572.578125 99.2875 C 3562.460938 79.951562 3550.625 55.615625 3546.367188 44.482812 C 3545.585938 44.053125 3544.609375 43.857812 3543.59375 43.857812 C 3542.34375 43.857812 3541.054688 44.053125 3539.804688 44.482812 C 3537.03125 53.271875 3532.734375 63.584375 3528.203125 72.4125 Z M 3483.90625 163.545312 " transform="matrix(0.1,0,0,-0.1,0,140.71)"/>
</g>
<path style=" stroke:none;fill-rule:nonzero;fill:rgb(13.699341%,12.199402%,12.5%);fill-opacity:1;" d="M 381.242188 125.28125 C 381.242188 123.097656 381.191406 122.78125 379.707031 122.636719 L 379.304688 122.59375 C 379.152344 122.511719 379.203125 122.132813 379.355469 122.070313 C 380.4375 122.109375 381.292969 122.132813 382.324219 122.132813 L 387.0625 122.132813 C 388.675781 122.132813 390.160156 122.132813 390.464844 122.070313 C 390.613281 122.425781 390.765625 123.9375 390.867188 124.859375 C 390.765625 124.988281 390.363281 125.027344 390.234375 124.902344 C 389.859375 123.914063 389.632813 123.183594 388.320313 122.910156 C 387.792969 122.804688 386.988281 122.78125 385.878906 122.78125 L 384.0625 122.78125 C 383.308594 122.78125 383.308594 122.824219 383.308594 123.621094 L 383.308594 127.820313 C 383.308594 128.410156 383.386719 128.410156 384.140625 128.410156 L 385.601563 128.410156 C 386.660156 128.410156 387.441406 128.367188 387.742188 128.285156 C 388.046875 128.199219 388.222656 128.074219 388.347656 127.550781 L 388.550781 126.6875 C 388.675781 126.5625 389.105469 126.5625 389.203125 126.707031 C 389.203125 127.214844 389.105469 128.03125 389.105469 128.828125 C 389.105469 129.585938 389.203125 130.382813 389.203125 130.84375 C 389.105469 130.992188 388.675781 130.992188 388.550781 130.867188 L 388.320313 130.046875 C 388.222656 129.667969 388.046875 129.355469 387.542969 129.25 C 387.1875 129.164063 386.585938 129.144531 385.601563 129.144531 L 384.140625 129.144531 C 383.386719 129.144531 383.308594 129.164063 383.308594 129.710938 L 383.308594 132.671875 C 383.308594 133.785156 383.386719 134.496094 383.789063 134.855469 C 384.089844 135.105469 384.617188 135.339844 386.835938 135.339844 C 388.773438 135.339844 389.507813 135.253906 390.0625 135.023438 C 390.515625 134.8125 391.195313 134.078125 391.851563 132.984375 C 392.023438 132.882813 392.378906 132.945313 392.480469 133.132813 C 392.304688 133.867188 391.671875 135.484375 391.347656 136.054688 C 389.078125 136.011719 386.835938 135.988281 384.59375 135.988281 L 382.324219 135.988281 C 381.242188 135.988281 380.386719 136.011719 378.898438 136.054688 C 378.75 135.988281 378.699219 135.652344 378.851563 135.527344 L 379.683594 135.464844 C 381.117188 135.359375 381.242188 135.042969 381.242188 132.839844 L 381.242188 125.28125 "/>
<g clip-path="url(#clip14)" clip-rule="nonzero">
<path style="fill:none;stroke-width:10;stroke-linecap:butt;stroke-linejoin:miter;stroke:rgb(13.699341%,12.199402%,12.5%);stroke-opacity:1;stroke-miterlimit:4;" d="M 3812.421875 154.2875 C 3812.421875 176.123437 3811.914063 179.2875 3797.070313 180.732812 L 3793.046875 181.1625 C 3791.523438 181.982812 3792.03125 185.771875 3793.554688 186.396875 C 3804.375 186.00625 3812.929688 185.771875 3823.242188 185.771875 L 3870.625 185.771875 C 3886.757813 185.771875 3901.601563 185.771875 3904.648438 186.396875 C 3906.132813 182.842187 3907.65625 167.725 3908.671875 158.50625 C 3907.65625 157.217187 3903.632813 156.826562 3902.34375 158.076562 C 3898.59375 167.959375 3896.328125 175.264062 3883.203125 177.998437 C 3877.929688 179.053125 3869.882813 179.2875 3858.789063 179.2875 L 3840.625 179.2875 C 3833.085938 179.2875 3833.085938 178.857812 3833.085938 170.889062 L 3833.085938 128.896875 C 3833.085938 122.998437 3833.867188 122.998437 3841.40625 122.998437 L 3856.015625 122.998437 C 3866.601563 122.998437 3874.414063 123.428125 3877.421875 124.248437 C 3880.46875 125.107812 3882.226563 126.357812 3883.476563 131.592187 L 3885.507813 140.225 C 3886.757813 141.475 3891.054688 141.475 3892.03125 140.029687 C 3892.03125 134.951562 3891.054688 126.7875 3891.054688 118.81875 C 3891.054688 111.240625 3892.03125 103.271875 3892.03125 98.6625 C 3891.054688 97.178125 3886.757813 97.178125 3885.507813 98.428125 L 3883.203125 106.63125 C 3882.226563 110.420312 3880.46875 113.545312 3875.429688 114.6 C 3871.875 115.459375 3865.859375 115.654687 3856.015625 115.654687 L 3841.40625 115.654687 C 3833.867188 115.654687 3833.085938 115.459375 3833.085938 109.990625 L 3833.085938 80.38125 C 3833.085938 69.248437 3833.867188 62.139062 3837.890625 58.545312 C 3840.898438 56.045312 3846.171875 53.701562 3868.359375 53.701562 C 3887.734375 53.701562 3895.078125 54.560937 3900.625 56.865625 C 3905.15625 58.975 3911.953125 66.31875 3918.515625 77.25625 C 3920.234375 78.271875 3923.789063 77.646875 3924.804688 75.771875 C 3923.046875 68.428125 3916.71875 52.25625 3913.476563 46.553125 C 3890.78125 46.982812 3868.359375 47.217187 3845.9375 47.217187 L 3823.242188 47.217187 C 3812.421875 47.217187 3803.867188 46.982812 3788.984375 46.553125 C 3787.5 47.217187 3786.992188 50.576562 3788.515625 51.826562 L 3796.835938 52.451562 C 3811.171875 53.50625 3812.421875 56.670312 3812.421875 78.701562 Z M 3812.421875 154.2875 " transform="matrix(0.1,0,0,-0.1,0,140.71)"/>
</g>
<path style=" stroke:none;fill-rule:nonzero;fill:rgb(13.699341%,12.199402%,12.5%);fill-opacity:1;" d="M 413.144531 128.304688 C 413.144531 128.683594 413.144531 128.914063 413.222656 128.996094 C 413.296875 129.0625 413.675781 129.101563 414.960938 129.101563 C 415.867188 129.101563 416.824219 129.019531 417.554688 128.558594 C 418.234375 128.113281 418.8125 127.382813 418.8125 125.953125 C 418.8125 124.292969 417.578125 122.71875 414.78125 122.71875 C 413.222656 122.71875 413.144531 122.804688 413.144531 123.390625 Z M 411.078125 125.304688 C 411.078125 123.308594 411.003906 122.949219 409.972656 122.847656 L 409.164063 122.761719 C 408.988281 122.65625 408.988281 122.320313 409.191406 122.234375 C 410.601563 122.132813 412.339844 122.070313 414.808594 122.070313 C 416.371094 122.070313 417.855469 122.175781 419.015625 122.699219 C 420.226563 123.222656 421.105469 124.167969 421.105469 125.636719 C 421.105469 127.632813 419.21875 128.726563 417.957031 129.144531 C 417.832031 129.269531 417.957031 129.480469 418.082031 129.648438 C 420.097656 132.355469 421.433594 134.035156 423.144531 135.234375 C 423.574219 135.550781 424.203125 135.777344 424.886719 135.820313 C 425.011719 135.863281 425.035156 136.03125 424.910156 136.113281 C 424.683594 136.179688 424.28125 136.21875 423.800781 136.21875 C 421.660156 136.21875 420.375 135.695313 418.585938 133.574219 C 417.933594 132.796875 416.898438 131.347656 416.117188 130.402344 C 415.738281 129.941406 415.339844 129.730469 414.328125 129.730469 C 413.195313 129.730469 413.144531 129.753906 413.144531 130.195313 L 413.144531 132.839844 C 413.144531 135.042969 413.195313 135.296875 414.65625 135.464844 L 415.1875 135.527344 C 415.339844 135.632813 415.285156 135.988281 415.136719 136.054688 C 414.003906 136.011719 413.144531 135.988281 412.136719 135.988281 C 411.078125 135.988281 410.171875 136.011719 408.988281 136.054688 C 408.839844 135.988281 408.785156 135.675781 408.9375 135.527344 L 409.566406 135.464844 C 411.027344 135.316406 411.078125 135.042969 411.078125 132.839844 L 411.078125 125.304688 "/>
<g clip-path="url(#clip15)" clip-rule="nonzero">
<path style="fill:none;stroke-width:10;stroke-linecap:butt;stroke-linejoin:miter;stroke:rgb(13.699341%,12.199402%,12.5%);stroke-opacity:1;stroke-miterlimit:4;" d="M 4131.445313 124.053125 C 4131.445313 120.264062 4131.445313 117.959375 4132.226563 117.139062 C 4132.96875 116.475 4136.757813 116.084375 4149.609375 116.084375 C 4158.671875 116.084375 4168.242188 116.904687 4175.546875 121.514062 C 4182.34375 125.967187 4188.125 133.271875 4188.125 147.56875 C 4188.125 164.170312 4175.78125 179.9125 4147.8125 179.9125 C 4132.226563 179.9125 4131.445313 179.053125 4131.445313 173.19375 Z M 4110.78125 154.053125 C 4110.78125 174.014062 4110.039063 177.607812 4099.726563 178.623437 L 4091.640625 179.482812 C 4089.882813 180.5375 4089.882813 183.896875 4091.914063 184.75625 C 4106.015625 185.771875 4123.398438 186.396875 4148.085938 186.396875 C 4163.710938 186.396875 4178.554688 185.342187 4190.15625 180.107812 C 4202.265625 174.873437 4211.054688 165.420312 4211.054688 150.732812 C 4211.054688 130.771875 4192.1875 119.834375 4179.570313 115.654687 C 4178.320313 114.404687 4179.570313 112.295312 4180.820313 110.615625 C 4200.976563 83.545312 4214.335938 66.748437 4231.445313 54.75625 C 4235.742188 51.592187 4242.03125 49.326562 4248.867188 48.896875 C 4250.117188 48.467187 4250.351563 46.7875 4249.101563 45.967187 C 4246.835938 45.303125 4242.8125 44.9125 4238.007813 44.9125 C 4216.601563 44.9125 4203.75 50.146875 4185.859375 71.357812 C 4179.335938 79.13125 4168.984375 93.623437 4161.171875 103.076562 C 4157.382813 107.685937 4153.398438 109.795312 4143.28125 109.795312 C 4131.953125 109.795312 4131.445313 109.560937 4131.445313 105.146875 L 4131.445313 78.701562 C 4131.445313 56.670312 4131.953125 54.13125 4146.5625 52.451562 L 4151.875 51.826562 C 4153.398438 50.771875 4152.851563 47.217187 4151.367188 46.553125 C 4140.039063 46.982812 4131.445313 47.217187 4121.367188 47.217187 C 4110.78125 47.217187 4101.71875 46.982812 4089.882813 46.553125 C 4088.398438 47.217187 4087.851563 50.342187 4089.375 51.826562 L 4095.664063 52.451562 C 4110.273438 53.935937 4110.78125 56.670312 4110.78125 78.701562 Z M 4110.78125 154.053125 " transform="matrix(0.1,0,0,-0.1,0,140.71)"/>
</g>
<path style=" stroke:none;fill-rule:nonzero;fill:rgb(13.699341%,12.199402%,12.5%);fill-opacity:1;" d="M 444.867188 136.324219 C 442.75 136.324219 441.414063 135.777344 440.9375 135.550781 C 440.632813 135.085938 440.308594 133.597656 440.257813 132.609375 C 440.382813 132.460938 440.761719 132.421875 440.859375 132.546875 C 441.238281 133.617188 442.269531 135.675781 445.195313 135.675781 C 447.3125 135.675781 448.34375 134.519531 448.34375 133.261719 C 448.34375 132.335938 448.117188 131.308594 446.277344 130.320313 L 443.882813 129.019531 C 442.625 128.324219 441.164063 127.128906 441.164063 125.40625 C 441.164063 123.410156 443.027344 121.796875 446.304688 121.796875 C 447.085938 121.796875 447.988281 121.902344 448.644531 122.070313 C 448.972656 122.132813 449.324219 122.195313 449.527344 122.195313 C 449.753906 122.699219 449.980469 123.875 449.980469 124.757813 C 449.878906 124.882813 449.476563 124.945313 449.351563 124.820313 C 449.023438 123.8125 448.34375 122.445313 445.925781 122.445313 C 443.457031 122.445313 442.925781 123.8125 442.925781 124.777344 C 442.925781 125.996094 444.136719 126.855469 445.066406 127.359375 L 447.085938 128.410156 C 448.671875 129.226563 450.230469 130.445313 450.230469 132.441406 C 450.230469 134.75 448.140625 136.324219 444.867188 136.324219 "/>
<g clip-path="url(#clip16)" clip-rule="nonzero">
<path style="fill:none;stroke-width:10;stroke-linecap:butt;stroke-linejoin:miter;stroke:rgb(13.699341%,12.199402%,12.5%);stroke-opacity:1;stroke-miterlimit:4;" d="M 4448.671875 43.857812 C 4427.5 43.857812 4414.140625 49.326562 4409.375 51.592187 C 4406.328125 56.240625 4403.085938 71.123437 4402.578125 81.00625 C 4403.828125 82.490625 4407.617188 82.88125 4408.59375 81.63125 C 4412.382813 70.928125 4422.695313 50.342187 4451.953125 50.342187 C 4473.125 50.342187 4483.4375 61.904687 4483.4375 74.482812 C 4483.4375 83.740625 4481.171875 94.014062 4462.773438 103.896875 L 4438.828125 116.904687 C 4426.25 123.857812 4411.640625 135.810937 4411.640625 153.0375 C 4411.640625 172.998437 4430.273438 189.13125 4463.046875 189.13125 C 4470.859375 189.13125 4479.882813 188.076562 4486.445313 186.396875 C 4489.726563 185.771875 4493.242188 185.146875 4495.273438 185.146875 C 4497.539063 180.107812 4499.804688 168.35 4499.804688 159.521875 C 4498.789063 158.271875 4494.765625 157.646875 4493.515625 158.896875 C 4490.234375 168.975 4483.4375 182.646875 4459.257813 182.646875 C 4434.570313 182.646875 4429.257813 168.975 4429.257813 159.326562 C 4429.257813 147.139062 4441.367188 138.545312 4450.664063 133.50625 L 4470.859375 122.998437 C 4486.71875 114.834375 4502.304688 102.646875 4502.304688 82.685937 C 4502.304688 59.6 4481.40625 43.857812 4448.671875 43.857812 Z M 4448.671875 43.857812 " transform="matrix(0.1,0,0,-0.1,0,140.71)"/>
</g>
<path style=" stroke:none;fill-rule:nonzero;fill:rgb(13.699341%,12.199402%,12.5%);fill-opacity:1;" d="M 469.886719 125.324219 C 469.886719 123.097656 469.835938 122.738281 468.347656 122.636719 L 467.71875 122.59375 C 467.566406 122.511719 467.617188 122.132813 467.769531 122.070313 C 469.027344 122.109375 469.886719 122.132813 470.941406 122.132813 C 471.949219 122.132813 472.808594 122.109375 474.066406 122.070313 C 474.21875 122.132813 474.269531 122.511719 474.117188 122.59375 L 473.488281 122.636719 C 472 122.738281 471.949219 123.097656 471.949219 125.324219 L 471.949219 132.796875 C 471.949219 135.023438 472 135.316406 473.488281 135.464844 L 474.117188 135.527344 C 474.269531 135.609375 474.21875 135.988281 474.066406 136.054688 C 472.808594 136.011719 471.949219 135.988281 470.941406 135.988281 C 469.886719 135.988281 469.027344 136.011719 467.769531 136.054688 C 467.617188 135.988281 467.566406 135.652344 467.71875 135.527344 L 468.347656 135.464844 C 469.835938 135.316406 469.886719 135.023438 469.886719 132.796875 L 469.886719 125.324219 "/>
<g clip-path="url(#clip17)" clip-rule="nonzero">
<path style="fill:none;stroke-width:10;stroke-linecap:butt;stroke-linejoin:miter;stroke:rgb(13.699341%,12.199402%,12.5%);stroke-opacity:1;stroke-miterlimit:4;" d="M 4698.867188 153.857812 C 4698.867188 176.123437 4698.359375 179.717187 4683.476563 180.732812 L 4677.1875 181.1625 C 4675.664063 181.982812 4676.171875 185.771875 4677.695313 186.396875 C 4690.273438 186.00625 4698.867188 185.771875 4709.414063 185.771875 C 4719.492188 185.771875 4728.085938 186.00625 4740.664063 186.396875 C 4742.1875 185.771875 4742.695313 181.982812 4741.171875 181.1625 L 4734.882813 180.732812 C 4720 179.717187 4719.492188 176.123437 4719.492188 153.857812 L 4719.492188 79.13125 C 4719.492188 56.865625 4720 53.935937 4734.882813 52.451562 L 4741.171875 51.826562 C 4742.695313 51.00625 4742.1875 47.217187 4740.664063 46.553125 C 4728.085938 46.982812 4719.492188 47.217187 4709.414063 47.217187 C 4698.867188 47.217187 4690.273438 46.982812 4677.695313 46.553125 C 4676.171875 47.217187 4675.664063 50.576562 4677.1875 51.826562 L 4683.476563 52.451562 C 4698.359375 53.935937 4698.867188 56.865625 4698.867188 79.13125 Z M 4698.867188 153.857812 " transform="matrix(0.1,0,0,-0.1,0,140.71)"/>
</g>
<path style=" stroke:none;fill-rule:nonzero;fill:rgb(13.699341%,12.199402%,12.5%);fill-opacity:1;" d="M 499.566406 132.839844 C 499.566406 135.042969 499.617188 135.339844 501.078125 135.464844 L 501.882813 135.527344 C 502.035156 135.609375 501.984375 135.988281 501.835938 136.054688 C 500.398438 136.011719 499.539063 135.988281 498.53125 135.988281 C 497.523438 135.988281 496.644531 136.011719 495.03125 136.054688 C 494.882813 135.988281 494.828125 135.632813 495.03125 135.527344 L 495.9375 135.464844 C 497.375 135.359375 497.5 135.042969 497.5 132.839844 L 497.5 123.453125 C 497.5 122.804688 497.5 122.78125 496.742188 122.78125 L 495.359375 122.78125 C 494.273438 122.78125 492.890625 122.824219 492.261719 123.308594 C 491.65625 123.769531 491.402344 124.230469 491.128906 124.757813 C 490.925781 124.882813 490.570313 124.777344 490.472656 124.609375 C 490.875 123.664063 491.253906 122.320313 491.429688 121.480469 C 491.503906 121.4375 491.832031 121.417969 491.90625 121.480469 C 492.058594 122.152344 492.890625 122.132813 494.050781 122.132813 L 504.253906 122.132813 C 505.613281 122.132813 505.839844 122.089844 506.21875 121.542969 C 506.34375 121.503906 506.621094 121.523438 506.671875 121.605469 C 506.394531 122.46875 506.21875 124.167969 506.292969 124.800781 C 506.191406 124.964844 505.765625 124.964844 505.636719 124.839844 C 505.5625 124.316406 505.386719 123.539063 505.007813 123.308594 C 504.429688 122.949219 503.472656 122.78125 502.085938 122.78125 L 500.296875 122.78125 C 499.539063 122.78125 499.566406 122.804688 499.566406 123.496094 L 499.566406 132.839844 "/>
<g clip-path="url(#clip18)" clip-rule="nonzero">
<path style="fill:none;stroke-width:10;stroke-linecap:butt;stroke-linejoin:miter;stroke:rgb(13.699341%,12.199402%,12.5%);stroke-opacity:1;stroke-miterlimit:4;" d="M 4995.664063 78.701562 C 4995.664063 56.670312 4996.171875 53.701562 5010.78125 52.451562 L 5018.828125 51.826562 C 5020.351563 51.00625 5019.84375 47.217187 5018.359375 46.553125 C 5003.984375 46.982812 4995.390625 47.217187 4985.3125 47.217187 C 4975.234375 47.217187 4966.445313 46.982812 4950.3125 46.553125 C 4948.828125 47.217187 4948.28125 50.771875 4950.3125 51.826562 L 4959.375 52.451562 C 4973.75 53.50625 4975 56.670312 4975 78.701562 L 4975 172.56875 C 4975 179.053125 4975 179.2875 4967.421875 179.2875 L 4953.59375 179.2875 C 4942.734375 179.2875 4928.90625 178.857812 4922.617188 174.014062 C 4916.5625 169.404687 4914.023438 164.795312 4911.289063 159.521875 C 4909.257813 158.271875 4905.703125 159.326562 4904.726563 161.00625 C 4908.75 170.459375 4912.539063 183.896875 4914.296875 192.295312 C 4915.039063 192.725 4918.320313 192.920312 4919.0625 192.295312 C 4920.585938 185.576562 4928.90625 185.771875 4940.507813 185.771875 L 5042.539063 185.771875 C 5056.132813 185.771875 5058.398438 186.201562 5062.1875 191.670312 C 5063.4375 192.060937 5066.210938 191.865625 5066.71875 191.045312 C 5063.945313 182.4125 5062.1875 165.420312 5062.929688 159.092187 C 5061.914063 157.451562 5057.65625 157.451562 5056.367188 158.701562 C 5055.625 163.935937 5053.867188 171.709375 5050.078125 174.014062 C 5044.296875 177.607812 5034.726563 179.2875 5020.859375 179.2875 L 5002.96875 179.2875 C 4995.390625 179.2875 4995.664063 179.053125 4995.664063 172.139062 Z M 4995.664063 78.701562 " transform="matrix(0.1,0,0,-0.1,0,140.71)"/>
</g>
<path style=" stroke:none;fill-rule:nonzero;fill:rgb(13.699341%,12.199402%,12.5%);fill-opacity:1;" d="M 530.511719 132.796875 C 530.511719 135.042969 530.660156 135.382813 532.019531 135.464844 L 532.980469 135.527344 C 533.128906 135.652344 533.078125 135.988281 532.929688 136.054688 C 531.367188 136.011719 530.511719 135.988281 529.503906 135.988281 C 528.445313 135.988281 527.535156 136.011719 526.203125 136.054688 C 526.050781 135.988281 526 135.652344 526.152344 135.527344 L 526.933594 135.464844 C 528.394531 135.339844 528.445313 135.042969 528.445313 132.796875 L 528.445313 131.726563 C 528.445313 130.570313 528.367188 130.300781 527.640625 129.121094 L 524.664063 124.292969 C 523.808594 122.910156 523.433594 122.804688 522.675781 122.699219 L 521.96875 122.59375 C 521.816406 122.445313 521.84375 122.152344 522.019531 122.070313 C 522.824219 122.109375 523.734375 122.132813 524.941406 122.132813 C 526.101563 122.132813 527.007813 122.109375 527.640625 122.070313 C 527.863281 122.132813 527.863281 122.46875 527.714844 122.59375 L 527.386719 122.636719 C 526.503906 122.761719 526.328125 122.847656 526.328125 123.015625 C 526.328125 123.222656 526.984375 124.421875 527.109375 124.632813 C 528.039063 126.183594 528.972656 127.84375 529.957031 129.289063 C 530.734375 128.179688 531.566406 126.960938 532.324219 125.742188 C 533.027344 124.652344 533.960938 123.222656 533.960938 122.972656 C 533.960938 122.847656 533.507813 122.699219 532.902344 122.636719 L 532.449219 122.59375 C 532.273438 122.445313 532.300781 122.152344 532.5 122.070313 C 533.40625 122.109375 534.136719 122.132813 534.917969 122.132813 C 535.699219 122.132813 536.40625 122.109375 537.261719 122.070313 C 537.464844 122.175781 537.488281 122.46875 537.3125 122.59375 L 536.605469 122.699219 C 535.296875 122.867188 534.539063 124.210938 533.28125 126.015625 L 531.695313 128.304688 C 530.5625 129.878906 530.511719 130.089844 530.511719 131.707031 L 530.511719 132.796875 "/>
<g clip-path="url(#clip19)" clip-rule="nonzero">
<path style="fill:none;stroke-width:10;stroke-linecap:butt;stroke-linejoin:miter;stroke:rgb(13.699341%,12.199402%,12.5%);stroke-opacity:1;stroke-miterlimit:4;" d="M 5305.117188 79.13125 C 5305.117188 56.670312 5306.601563 53.271875 5320.195313 52.451562 L 5329.804688 51.826562 C 5331.289063 50.576562 5330.78125 47.217187 5329.296875 46.553125 C 5313.671875 46.982812 5305.117188 47.217187 5295.039063 47.217187 C 5284.453125 47.217187 5275.351563 46.982812 5262.03125 46.553125 C 5260.507813 47.217187 5260 50.576562 5261.523438 51.826562 L 5269.335938 52.451562 C 5283.945313 53.701562 5284.453125 56.670312 5284.453125 79.13125 L 5284.453125 89.834375 C 5284.453125 101.396875 5283.671875 104.092187 5276.40625 115.889062 L 5246.640625 164.170312 C 5238.085938 177.998437 5234.335938 179.053125 5226.757813 180.107812 L 5219.6875 181.1625 C 5218.164063 182.646875 5218.4375 185.576562 5220.195313 186.396875 C 5228.242188 186.00625 5237.34375 185.771875 5249.414063 185.771875 C 5261.015625 185.771875 5270.078125 186.00625 5276.40625 186.396875 C 5278.632813 185.771875 5278.632813 182.4125 5277.148438 181.1625 L 5273.867188 180.732812 C 5265.039063 179.482812 5263.28125 178.623437 5263.28125 176.94375 C 5263.28125 174.873437 5269.84375 162.88125 5271.09375 160.771875 C 5280.390625 145.264062 5289.726563 128.6625 5299.570313 114.209375 C 5307.34375 125.303125 5315.664063 137.490625 5323.242188 149.678125 C 5330.273438 160.576562 5339.609375 174.873437 5339.609375 177.373437 C 5339.609375 178.623437 5335.078125 180.107812 5329.023438 180.732812 L 5324.492188 181.1625 C 5322.734375 182.646875 5323.007813 185.576562 5325 186.396875 C 5334.0625 186.00625 5341.367188 185.771875 5349.179688 185.771875 C 5356.992188 185.771875 5364.0625 186.00625 5372.617188 186.396875 C 5374.648438 185.342187 5374.882813 182.4125 5373.125 181.1625 L 5366.054688 180.107812 C 5352.96875 178.428125 5345.390625 164.990625 5332.8125 146.94375 L 5316.953125 124.053125 C 5305.625 108.310937 5305.117188 106.201562 5305.117188 90.029687 Z M 5305.117188 79.13125 " transform="matrix(0.1,0,0,-0.1,0,140.71)"/>
</g>
</g>
</svg>
